G04 Layer: TopPasteMaskLayer*
G04 EasyEDA v6.3.22, 2020-04-08T11:48:21--7:00*
G04 247715d04a294634badd8a564075c606,8a10dd2cf1b84b9ab6f9dfecbfc888dd,10*
G04 Gerber Generator version 0.2*
G04 Scale: 100 percent, Rotated: No, Reflected: No *
G04 Dimensions in inches *
G04 leading zeros omitted , absolute positions ,2 integer and 4 decimal *
%FSLAX24Y24*%
%MOIN*%
G90*
G70D02*


%LPD*%
G36*
G01X30190Y2982D02*
G01X30879Y2982D01*
G01X30879Y167D01*
G01X30190Y167D01*
G01X30190Y2982D01*
G37*
G36*
G01X29206Y2982D02*
G01X29895Y2982D01*
G01X29895Y167D01*
G01X29206Y167D01*
G01X29206Y2982D01*
G37*
G36*
G01X28222Y2982D02*
G01X28911Y2982D01*
G01X28911Y167D01*
G01X28222Y167D01*
G01X28222Y2982D01*
G37*
G36*
G01X27237Y2982D02*
G01X27926Y2982D01*
G01X27926Y167D01*
G01X27237Y167D01*
G01X27237Y2982D01*
G37*
G36*
G01X26253Y2982D02*
G01X26942Y2982D01*
G01X26942Y167D01*
G01X26253Y167D01*
G01X26253Y2982D01*
G37*
G36*
G01X25269Y2982D02*
G01X25958Y2982D01*
G01X25958Y167D01*
G01X25269Y167D01*
G01X25269Y2982D01*
G37*
G36*
G01X24285Y2982D02*
G01X24974Y2982D01*
G01X24974Y167D01*
G01X24285Y167D01*
G01X24285Y2982D01*
G37*
G36*
G01X23300Y2982D02*
G01X23989Y2982D01*
G01X23989Y167D01*
G01X23300Y167D01*
G01X23300Y2982D01*
G37*
G36*
G01X22316Y2982D02*
G01X23005Y2982D01*
G01X23005Y167D01*
G01X22316Y167D01*
G01X22316Y2982D01*
G37*
G36*
G01X21332Y2982D02*
G01X22021Y2982D01*
G01X22021Y167D01*
G01X21332Y167D01*
G01X21332Y2982D01*
G37*
G36*
G01X20348Y2982D02*
G01X21037Y2982D01*
G01X21037Y167D01*
G01X20348Y167D01*
G01X20348Y2982D01*
G37*
G36*
G01X19363Y2982D02*
G01X20052Y2982D01*
G01X20052Y167D01*
G01X19363Y167D01*
G01X19363Y2982D01*
G37*
G36*
G01X18379Y2982D02*
G01X19068Y2982D01*
G01X19068Y167D01*
G01X18379Y167D01*
G01X18379Y2982D01*
G37*
G36*
G01X17395Y2982D02*
G01X18084Y2982D01*
G01X18084Y167D01*
G01X17395Y167D01*
G01X17395Y2982D01*
G37*
G36*
G01X16411Y2982D02*
G01X17100Y2982D01*
G01X17100Y167D01*
G01X16411Y167D01*
G01X16411Y2982D01*
G37*
G36*
G01X15426Y2982D02*
G01X16115Y2982D01*
G01X16115Y167D01*
G01X15426Y167D01*
G01X15426Y2982D01*
G37*
G36*
G01X14442Y2982D02*
G01X15131Y2982D01*
G01X15131Y167D01*
G01X14442Y167D01*
G01X14442Y2982D01*
G37*
G36*
G01X13458Y2982D02*
G01X14147Y2982D01*
G01X14147Y167D01*
G01X13458Y167D01*
G01X13458Y2982D01*
G37*
G36*
G01X12474Y2982D02*
G01X13163Y2982D01*
G01X13163Y167D01*
G01X12474Y167D01*
G01X12474Y2982D01*
G37*
G36*
G01X11489Y2982D02*
G01X12178Y2982D01*
G01X12178Y167D01*
G01X11489Y167D01*
G01X11489Y2982D01*
G37*
G36*
G01X10505Y2982D02*
G01X11194Y2982D01*
G01X11194Y167D01*
G01X10505Y167D01*
G01X10505Y2982D01*
G37*
G36*
G01X9521Y2982D02*
G01X10210Y2982D01*
G01X10210Y167D01*
G01X9521Y167D01*
G01X9521Y2982D01*
G37*
G36*
G01X8537Y2982D02*
G01X9226Y2982D01*
G01X9226Y167D01*
G01X8537Y167D01*
G01X8537Y2982D01*
G37*
M00*
M02*
