G04 Layer: BottomLayer*
G04 EasyEDA v6.3.22, 2020-04-08T11:48:21--7:00*
G04 247715d04a294634badd8a564075c606,8a10dd2cf1b84b9ab6f9dfecbfc888dd,10*
G04 Gerber Generator version 0.2*
G04 Scale: 100 percent, Rotated: No, Reflected: No *
G04 Dimensions in inches *
G04 leading zeros omitted , absolute positions ,2 integer and 4 decimal *
%FSLAX24Y24*%
%MOIN*%
G90*
G70D02*

%ADD11C,0.030000*%
%ADD12C,0.006299*%
%ADD13C,0.024016*%
%ADD14C,0.024000*%
%ADD15R,0.055000X0.055000*%
%ADD16C,0.055000*%
%ADD17C,0.047000*%
%ADD18R,0.063000X0.063000*%
%ADD19C,0.063000*%

%LPD*%
G36*
G01X23063Y11892D02*
G01X16906Y11892D01*
G01X16894Y11890D01*
G01X16882Y11884D01*
G01X15879Y10881D01*
G01X15871Y10871D01*
G01X15869Y10865D01*
G01X15867Y10853D01*
G01X15867Y6114D01*
G01X15865Y6104D01*
G01X15863Y6093D01*
G01X15861Y6083D01*
G01X15857Y6074D01*
G01X15853Y6064D01*
G01X15848Y6055D01*
G01X15842Y6046D01*
G01X15835Y6038D01*
G01X12990Y3193D01*
G01X12986Y3188D01*
G01X12983Y3182D01*
G01X12980Y3177D01*
G01X12979Y3171D01*
G01X12978Y3164D01*
G01X12979Y3159D01*
G01X12980Y3153D01*
G01X12982Y3148D01*
G01X12988Y3138D01*
G01X12992Y3134D01*
G01X13002Y3128D01*
G01X13007Y3126D01*
G01X13013Y3125D01*
G01X13018Y3124D01*
G01X13654Y3124D01*
G01X13660Y3125D01*
G01X13665Y3126D01*
G01X13671Y3128D01*
G01X13676Y3131D01*
G01X13681Y3135D01*
G01X13685Y3139D01*
G01X13694Y3154D01*
G01X13701Y3163D01*
G01X15963Y5425D01*
G01X15972Y5431D01*
G01X15980Y5437D01*
G01X15989Y5442D01*
G01X15999Y5447D01*
G01X16019Y5453D01*
G01X16029Y5455D01*
G01X16039Y5456D01*
G01X16050Y5457D01*
G01X16612Y5457D01*
G01X16617Y5458D01*
G01X16623Y5460D01*
G01X16628Y5463D01*
G01X16640Y5475D01*
G01X16642Y5480D01*
G01X16650Y5496D01*
G01X16659Y5512D01*
G01X16668Y5527D01*
G01X16678Y5542D01*
G01X16689Y5557D01*
G01X16700Y5570D01*
G01X16712Y5584D01*
G01X16738Y5608D01*
G01X16752Y5620D01*
G01X16766Y5630D01*
G01X16781Y5641D01*
G01X16796Y5650D01*
G01X16828Y5666D01*
G01X16845Y5673D01*
G01X16861Y5680D01*
G01X16879Y5685D01*
G01X16896Y5690D01*
G01X16913Y5693D01*
G01X16949Y5699D01*
G01X16967Y5700D01*
G01X17004Y5700D01*
G01X17023Y5698D01*
G01X17041Y5696D01*
G01X17060Y5693D01*
G01X17079Y5688D01*
G01X17097Y5683D01*
G01X17115Y5677D01*
G01X17133Y5670D01*
G01X17150Y5662D01*
G01X17167Y5653D01*
G01X17173Y5650D01*
G01X17179Y5649D01*
G01X17186Y5648D01*
G01X17192Y5649D01*
G01X17197Y5650D01*
G01X17203Y5652D01*
G01X17208Y5655D01*
G01X17212Y5658D01*
G01X17216Y5662D01*
G01X17220Y5667D01*
G01X17224Y5677D01*
G01X17226Y5683D01*
G01X17226Y10709D01*
G01X17230Y10729D01*
G01X17236Y10749D01*
G01X17240Y10758D01*
G01X17246Y10768D01*
G01X17251Y10776D01*
G01X17265Y10792D01*
G01X17623Y11150D01*
G01X17631Y11160D01*
G01X17633Y11166D01*
G01X17634Y11172D01*
G01X17635Y11179D01*
G01X17634Y11186D01*
G01X17632Y11193D01*
G01X17626Y11211D01*
G01X17621Y11229D01*
G01X17616Y11248D01*
G01X17613Y11267D01*
G01X17609Y11305D01*
G01X17609Y11342D01*
G01X17610Y11359D01*
G01X17612Y11376D01*
G01X17615Y11393D01*
G01X17623Y11427D01*
G01X17628Y11444D01*
G01X17634Y11460D01*
G01X17648Y11492D01*
G01X17656Y11507D01*
G01X17674Y11537D01*
G01X17684Y11551D01*
G01X17695Y11565D01*
G01X17707Y11578D01*
G01X17731Y11602D01*
G01X17744Y11614D01*
G01X17772Y11634D01*
G01X17787Y11644D01*
G01X17802Y11653D01*
G01X17817Y11661D01*
G01X17849Y11675D01*
G01X17865Y11681D01*
G01X17882Y11686D01*
G01X17898Y11690D01*
G01X17915Y11694D01*
G01X17933Y11697D01*
G01X17950Y11699D01*
G01X17967Y11700D01*
G01X18002Y11700D01*
G01X18019Y11699D01*
G01X18036Y11697D01*
G01X18054Y11694D01*
G01X18071Y11690D01*
G01X18087Y11686D01*
G01X18104Y11681D01*
G01X18120Y11675D01*
G01X18152Y11661D01*
G01X18168Y11653D01*
G01X18182Y11644D01*
G01X18197Y11634D01*
G01X18225Y11614D01*
G01X18238Y11602D01*
G01X18262Y11578D01*
G01X18274Y11565D01*
G01X18285Y11551D01*
G01X18295Y11537D01*
G01X18313Y11507D01*
G01X18321Y11492D01*
G01X18329Y11476D01*
G01X18341Y11444D01*
G01X18351Y11410D01*
G01X18357Y11376D01*
G01X18359Y11359D01*
G01X18360Y11342D01*
G01X18361Y11324D01*
G01X18359Y11290D01*
G01X18357Y11272D01*
G01X18351Y11238D01*
G01X18346Y11221D01*
G01X18341Y11205D01*
G01X18335Y11188D01*
G01X18329Y11172D01*
G01X18321Y11157D01*
G01X18313Y11141D01*
G01X18304Y11126D01*
G01X18295Y11112D01*
G01X18285Y11098D01*
G01X18274Y11084D01*
G01X18250Y11058D01*
G01X18238Y11046D01*
G01X18225Y11035D01*
G01X18211Y11024D01*
G01X18197Y11014D01*
G01X18182Y11005D01*
G01X18168Y10996D01*
G01X18136Y10980D01*
G01X18104Y10968D01*
G01X18087Y10963D01*
G01X18071Y10958D01*
G01X18054Y10955D01*
G01X18036Y10952D01*
G01X18019Y10950D01*
G01X17985Y10948D01*
G01X17965Y10949D01*
G01X17946Y10950D01*
G01X17908Y10956D01*
G01X17889Y10961D01*
G01X17871Y10966D01*
G01X17853Y10972D01*
G01X17846Y10974D01*
G01X17839Y10975D01*
G01X17833Y10974D01*
G01X17826Y10973D01*
G01X17821Y10970D01*
G01X17815Y10967D01*
G01X17503Y10655D01*
G01X17495Y10645D01*
G01X17493Y10639D01*
G01X17491Y10627D01*
G01X17491Y10109D01*
G01X17493Y10103D01*
G01X17497Y10093D01*
G01X17509Y10081D01*
G01X17514Y10078D01*
G01X17520Y10076D01*
G01X17525Y10075D01*
G01X17537Y10075D01*
G01X17549Y10079D01*
G01X17555Y10082D01*
G01X18623Y11150D01*
G01X18631Y11160D01*
G01X18633Y11166D01*
G01X18634Y11172D01*
G01X18635Y11179D01*
G01X18634Y11186D01*
G01X18632Y11193D01*
G01X18626Y11211D01*
G01X18621Y11229D01*
G01X18616Y11248D01*
G01X18613Y11267D01*
G01X18609Y11305D01*
G01X18609Y11342D01*
G01X18610Y11359D01*
G01X18612Y11376D01*
G01X18615Y11393D01*
G01X18623Y11427D01*
G01X18628Y11444D01*
G01X18634Y11460D01*
G01X18648Y11492D01*
G01X18656Y11507D01*
G01X18674Y11537D01*
G01X18684Y11551D01*
G01X18695Y11565D01*
G01X18707Y11578D01*
G01X18731Y11602D01*
G01X18744Y11614D01*
G01X18772Y11634D01*
G01X18787Y11644D01*
G01X18802Y11653D01*
G01X18817Y11661D01*
G01X18849Y11675D01*
G01X18865Y11681D01*
G01X18882Y11686D01*
G01X18898Y11690D01*
G01X18915Y11694D01*
G01X18933Y11697D01*
G01X18950Y11699D01*
G01X18967Y11700D01*
G01X19002Y11700D01*
G01X19019Y11699D01*
G01X19036Y11697D01*
G01X19054Y11694D01*
G01X19071Y11690D01*
G01X19087Y11686D01*
G01X19104Y11681D01*
G01X19120Y11675D01*
G01X19152Y11661D01*
G01X19168Y11653D01*
G01X19182Y11644D01*
G01X19197Y11634D01*
G01X19225Y11614D01*
G01X19238Y11602D01*
G01X19262Y11578D01*
G01X19274Y11565D01*
G01X19285Y11551D01*
G01X19295Y11537D01*
G01X19313Y11507D01*
G01X19321Y11492D01*
G01X19329Y11476D01*
G01X19341Y11444D01*
G01X19351Y11410D01*
G01X19357Y11376D01*
G01X19359Y11359D01*
G01X19360Y11342D01*
G01X19361Y11324D01*
G01X19359Y11290D01*
G01X19357Y11272D01*
G01X19351Y11238D01*
G01X19346Y11221D01*
G01X19341Y11205D01*
G01X19335Y11188D01*
G01X19329Y11172D01*
G01X19321Y11157D01*
G01X19313Y11141D01*
G01X19304Y11126D01*
G01X19295Y11112D01*
G01X19285Y11098D01*
G01X19274Y11084D01*
G01X19250Y11058D01*
G01X19238Y11046D01*
G01X19225Y11035D01*
G01X19211Y11024D01*
G01X19197Y11014D01*
G01X19182Y11005D01*
G01X19168Y10996D01*
G01X19136Y10980D01*
G01X19104Y10968D01*
G01X19087Y10963D01*
G01X19071Y10958D01*
G01X19054Y10955D01*
G01X19036Y10952D01*
G01X19019Y10950D01*
G01X18985Y10948D01*
G01X18965Y10949D01*
G01X18946Y10950D01*
G01X18908Y10956D01*
G01X18889Y10961D01*
G01X18871Y10966D01*
G01X18853Y10972D01*
G01X18846Y10974D01*
G01X18839Y10975D01*
G01X18833Y10974D01*
G01X18826Y10973D01*
G01X18821Y10970D01*
G01X18815Y10967D01*
G01X17630Y9782D01*
G01X17622Y9772D01*
G01X17620Y9766D01*
G01X17618Y9754D01*
G01X17618Y9235D01*
G01X17620Y9230D01*
G01X17622Y9224D01*
G01X17624Y9219D01*
G01X17636Y9207D01*
G01X17641Y9204D01*
G01X17647Y9202D01*
G01X17652Y9201D01*
G01X17664Y9201D01*
G01X17676Y9205D01*
G01X17682Y9208D01*
G01X17686Y9213D01*
G01X19623Y11150D01*
G01X19631Y11160D01*
G01X19633Y11166D01*
G01X19634Y11172D01*
G01X19635Y11179D01*
G01X19634Y11186D01*
G01X19632Y11193D01*
G01X19626Y11211D01*
G01X19621Y11229D01*
G01X19616Y11248D01*
G01X19613Y11267D01*
G01X19609Y11305D01*
G01X19609Y11342D01*
G01X19610Y11359D01*
G01X19612Y11376D01*
G01X19615Y11393D01*
G01X19623Y11427D01*
G01X19628Y11444D01*
G01X19634Y11460D01*
G01X19648Y11492D01*
G01X19656Y11507D01*
G01X19674Y11537D01*
G01X19684Y11551D01*
G01X19695Y11565D01*
G01X19707Y11578D01*
G01X19731Y11602D01*
G01X19744Y11614D01*
G01X19772Y11634D01*
G01X19787Y11644D01*
G01X19802Y11653D01*
G01X19817Y11661D01*
G01X19849Y11675D01*
G01X19865Y11681D01*
G01X19882Y11686D01*
G01X19898Y11690D01*
G01X19915Y11694D01*
G01X19933Y11697D01*
G01X19950Y11699D01*
G01X19967Y11700D01*
G01X20002Y11700D01*
G01X20019Y11699D01*
G01X20036Y11697D01*
G01X20054Y11694D01*
G01X20071Y11690D01*
G01X20087Y11686D01*
G01X20104Y11681D01*
G01X20120Y11675D01*
G01X20152Y11661D01*
G01X20168Y11653D01*
G01X20182Y11644D01*
G01X20197Y11634D01*
G01X20225Y11614D01*
G01X20238Y11602D01*
G01X20262Y11578D01*
G01X20274Y11565D01*
G01X20285Y11551D01*
G01X20295Y11537D01*
G01X20313Y11507D01*
G01X20321Y11492D01*
G01X20329Y11476D01*
G01X20341Y11444D01*
G01X20351Y11410D01*
G01X20357Y11376D01*
G01X20359Y11359D01*
G01X20360Y11342D01*
G01X20361Y11324D01*
G01X20359Y11290D01*
G01X20357Y11272D01*
G01X20351Y11238D01*
G01X20346Y11221D01*
G01X20341Y11205D01*
G01X20335Y11188D01*
G01X20329Y11172D01*
G01X20321Y11157D01*
G01X20313Y11141D01*
G01X20304Y11126D01*
G01X20295Y11112D01*
G01X20285Y11098D01*
G01X20274Y11084D01*
G01X20250Y11058D01*
G01X20238Y11046D01*
G01X20225Y11035D01*
G01X20211Y11024D01*
G01X20197Y11014D01*
G01X20182Y11005D01*
G01X20168Y10996D01*
G01X20136Y10980D01*
G01X20104Y10968D01*
G01X20087Y10963D01*
G01X20071Y10958D01*
G01X20054Y10955D01*
G01X20036Y10952D01*
G01X20019Y10950D01*
G01X19985Y10948D01*
G01X19965Y10949D01*
G01X19946Y10950D01*
G01X19908Y10956D01*
G01X19890Y10961D01*
G01X19871Y10966D01*
G01X19853Y10972D01*
G01X19846Y10974D01*
G01X19839Y10975D01*
G01X19827Y10973D01*
G01X19815Y10967D01*
G01X19811Y10963D01*
G01X17758Y8909D01*
G01X17750Y8899D01*
G01X17748Y8893D01*
G01X17746Y8881D01*
G01X17746Y5684D01*
G01X17748Y5679D01*
G01X17750Y5673D01*
G01X17752Y5668D01*
G01X17764Y5656D01*
G01X17769Y5653D01*
G01X17775Y5652D01*
G01X17780Y5650D01*
G01X17793Y5650D01*
G01X17799Y5652D01*
G01X17805Y5655D01*
G01X17839Y5671D01*
G01X17856Y5678D01*
G01X17874Y5684D01*
G01X17892Y5689D01*
G01X17910Y5693D01*
G01X17929Y5696D01*
G01X17947Y5698D01*
G01X17966Y5700D01*
G01X18002Y5700D01*
G01X18019Y5699D01*
G01X18036Y5697D01*
G01X18054Y5694D01*
G01X18071Y5690D01*
G01X18087Y5686D01*
G01X18104Y5681D01*
G01X18120Y5675D01*
G01X18152Y5661D01*
G01X18168Y5653D01*
G01X18182Y5644D01*
G01X18197Y5634D01*
G01X18225Y5614D01*
G01X18238Y5602D01*
G01X18262Y5578D01*
G01X18274Y5565D01*
G01X18285Y5551D01*
G01X18295Y5537D01*
G01X18313Y5507D01*
G01X18321Y5492D01*
G01X18329Y5476D01*
G01X18341Y5444D01*
G01X18351Y5410D01*
G01X18357Y5376D01*
G01X18359Y5359D01*
G01X18360Y5342D01*
G01X18361Y5324D01*
G01X18359Y5290D01*
G01X18357Y5272D01*
G01X18351Y5238D01*
G01X18346Y5221D01*
G01X18341Y5205D01*
G01X18335Y5188D01*
G01X18329Y5172D01*
G01X18321Y5157D01*
G01X18313Y5141D01*
G01X18304Y5126D01*
G01X18295Y5112D01*
G01X18285Y5098D01*
G01X18274Y5084D01*
G01X18250Y5058D01*
G01X18238Y5046D01*
G01X18225Y5035D01*
G01X18211Y5024D01*
G01X18197Y5014D01*
G01X18182Y5005D01*
G01X18168Y4996D01*
G01X18136Y4980D01*
G01X18104Y4968D01*
G01X18087Y4963D01*
G01X18071Y4958D01*
G01X18054Y4955D01*
G01X18036Y4952D01*
G01X18019Y4950D01*
G01X17985Y4948D01*
G01X17947Y4950D01*
G01X17929Y4952D01*
G01X17910Y4956D01*
G01X17892Y4960D01*
G01X17874Y4965D01*
G01X17856Y4971D01*
G01X17822Y4985D01*
G01X17805Y4994D01*
G01X17799Y4997D01*
G01X17793Y4998D01*
G01X17786Y4999D01*
G01X17780Y4998D01*
G01X17775Y4997D01*
G01X17769Y4995D01*
G01X17764Y4992D01*
G01X17760Y4989D01*
G01X17756Y4985D01*
G01X17752Y4980D01*
G01X17748Y4970D01*
G01X17746Y4964D01*
G01X17746Y4729D01*
G01X17744Y4719D01*
G01X17742Y4708D01*
G01X17740Y4698D01*
G01X17736Y4689D01*
G01X17732Y4679D01*
G01X17727Y4670D01*
G01X17721Y4661D01*
G01X17714Y4653D01*
G01X17707Y4646D01*
G01X16900Y3838D01*
G01X16892Y3828D01*
G01X16890Y3822D01*
G01X16888Y3810D01*
G01X16888Y3159D01*
G01X16890Y3153D01*
G01X16894Y3143D01*
G01X16898Y3138D01*
G01X16902Y3134D01*
G01X16906Y3131D01*
G01X16911Y3128D01*
G01X16917Y3126D01*
G01X16922Y3125D01*
G01X16928Y3124D01*
G01X18551Y3124D01*
G01X18557Y3125D01*
G01X18562Y3126D01*
G01X18568Y3128D01*
G01X18573Y3131D01*
G01X18577Y3134D01*
G01X18581Y3138D01*
G01X18585Y3143D01*
G01X18589Y3153D01*
G01X18591Y3159D01*
G01X18591Y4420D01*
G01X18595Y4440D01*
G01X18601Y4460D01*
G01X18605Y4469D01*
G01X18611Y4479D01*
G01X18616Y4487D01*
G01X18630Y4503D01*
G01X19007Y4880D01*
G01X19011Y4885D01*
G01X19014Y4890D01*
G01X19017Y4896D01*
G01X19019Y4908D01*
G01X19017Y4920D01*
G01X19015Y4925D01*
G01X19012Y4930D01*
G01X19009Y4934D01*
G01X19001Y4942D01*
G01X18996Y4945D01*
G01X18990Y4947D01*
G01X18985Y4948D01*
G01X18979Y4948D01*
G01X18961Y4949D01*
G01X18944Y4951D01*
G01X18926Y4953D01*
G01X18909Y4956D01*
G01X18892Y4960D01*
G01X18874Y4965D01*
G01X18858Y4970D01*
G01X18841Y4977D01*
G01X18825Y4984D01*
G01X18793Y5000D01*
G01X18778Y5010D01*
G01X18764Y5020D01*
G01X18736Y5042D01*
G01X18723Y5054D01*
G01X18699Y5080D01*
G01X18677Y5108D01*
G01X18667Y5123D01*
G01X18658Y5138D01*
G01X18650Y5153D01*
G01X18642Y5169D01*
G01X18635Y5186D01*
G01X18629Y5202D01*
G01X18623Y5219D01*
G01X18619Y5236D01*
G01X18615Y5254D01*
G01X18612Y5271D01*
G01X18610Y5289D01*
G01X18609Y5307D01*
G01X18609Y5342D01*
G01X18610Y5359D01*
G01X18612Y5376D01*
G01X18615Y5393D01*
G01X18623Y5427D01*
G01X18628Y5444D01*
G01X18634Y5460D01*
G01X18648Y5492D01*
G01X18656Y5507D01*
G01X18674Y5537D01*
G01X18684Y5551D01*
G01X18695Y5565D01*
G01X18707Y5578D01*
G01X18731Y5602D01*
G01X18744Y5614D01*
G01X18772Y5634D01*
G01X18787Y5644D01*
G01X18802Y5653D01*
G01X18817Y5661D01*
G01X18849Y5675D01*
G01X18865Y5681D01*
G01X18882Y5686D01*
G01X18898Y5690D01*
G01X18915Y5694D01*
G01X18933Y5697D01*
G01X18950Y5699D01*
G01X18967Y5700D01*
G01X19002Y5700D01*
G01X19020Y5699D01*
G01X19038Y5697D01*
G01X19055Y5694D01*
G01X19072Y5690D01*
G01X19090Y5685D01*
G01X19106Y5680D01*
G01X19123Y5674D01*
G01X19139Y5667D01*
G01X19171Y5651D01*
G01X19186Y5642D01*
G01X19201Y5632D01*
G01X19229Y5610D01*
G01X19255Y5586D01*
G01X19267Y5573D01*
G01X19289Y5545D01*
G01X19299Y5530D01*
G01X19317Y5500D01*
G01X19325Y5484D01*
G01X19332Y5468D01*
G01X19344Y5434D01*
G01X19349Y5417D01*
G01X19353Y5400D01*
G01X19356Y5383D01*
G01X19360Y5347D01*
G01X19361Y5330D01*
G01X19361Y5324D01*
G01X19362Y5318D01*
G01X19364Y5313D01*
G01X19367Y5308D01*
G01X19370Y5304D01*
G01X19374Y5300D01*
G01X19379Y5296D01*
G01X19389Y5292D01*
G01X19395Y5291D01*
G01X19400Y5290D01*
G01X19407Y5291D01*
G01X19413Y5292D01*
G01X19419Y5295D01*
G01X19424Y5298D01*
G01X19429Y5302D01*
G01X19470Y5343D01*
G01X19474Y5348D01*
G01X19478Y5354D01*
G01X19480Y5359D01*
G01X19482Y5365D01*
G01X19482Y9964D01*
G01X19486Y9984D01*
G01X19492Y10004D01*
G01X19496Y10013D01*
G01X19502Y10022D01*
G01X19507Y10031D01*
G01X19521Y10047D01*
G01X20623Y11150D01*
G01X20631Y11160D01*
G01X20633Y11166D01*
G01X20635Y11178D01*
G01X20634Y11186D01*
G01X20632Y11192D01*
G01X20626Y11211D01*
G01X20621Y11229D01*
G01X20616Y11248D01*
G01X20613Y11267D01*
G01X20609Y11305D01*
G01X20609Y11342D01*
G01X20610Y11359D01*
G01X20612Y11376D01*
G01X20615Y11393D01*
G01X20623Y11427D01*
G01X20628Y11444D01*
G01X20634Y11460D01*
G01X20648Y11492D01*
G01X20656Y11507D01*
G01X20674Y11537D01*
G01X20684Y11551D01*
G01X20695Y11565D01*
G01X20707Y11578D01*
G01X20731Y11602D01*
G01X20744Y11614D01*
G01X20772Y11634D01*
G01X20787Y11644D01*
G01X20802Y11653D01*
G01X20817Y11661D01*
G01X20849Y11675D01*
G01X20865Y11681D01*
G01X20882Y11686D01*
G01X20898Y11690D01*
G01X20915Y11694D01*
G01X20933Y11697D01*
G01X20950Y11699D01*
G01X20967Y11700D01*
G01X21002Y11700D01*
G01X21019Y11699D01*
G01X21036Y11697D01*
G01X21054Y11694D01*
G01X21071Y11690D01*
G01X21087Y11686D01*
G01X21104Y11681D01*
G01X21120Y11675D01*
G01X21152Y11661D01*
G01X21168Y11653D01*
G01X21182Y11644D01*
G01X21197Y11634D01*
G01X21225Y11614D01*
G01X21238Y11602D01*
G01X21262Y11578D01*
G01X21274Y11565D01*
G01X21285Y11551D01*
G01X21295Y11537D01*
G01X21313Y11507D01*
G01X21321Y11492D01*
G01X21329Y11476D01*
G01X21341Y11444D01*
G01X21351Y11410D01*
G01X21357Y11376D01*
G01X21359Y11359D01*
G01X21360Y11342D01*
G01X21361Y11324D01*
G01X21359Y11290D01*
G01X21357Y11272D01*
G01X21351Y11238D01*
G01X21346Y11221D01*
G01X21341Y11205D01*
G01X21335Y11188D01*
G01X21329Y11172D01*
G01X21321Y11157D01*
G01X21313Y11141D01*
G01X21304Y11126D01*
G01X21295Y11112D01*
G01X21285Y11098D01*
G01X21274Y11084D01*
G01X21250Y11058D01*
G01X21238Y11046D01*
G01X21225Y11035D01*
G01X21211Y11024D01*
G01X21197Y11014D01*
G01X21182Y11005D01*
G01X21168Y10996D01*
G01X21136Y10980D01*
G01X21104Y10968D01*
G01X21087Y10963D01*
G01X21071Y10958D01*
G01X21054Y10955D01*
G01X21036Y10952D01*
G01X21019Y10950D01*
G01X20985Y10948D01*
G01X20965Y10949D01*
G01X20946Y10950D01*
G01X20908Y10956D01*
G01X20890Y10960D01*
G01X20871Y10966D01*
G01X20853Y10972D01*
G01X20846Y10974D01*
G01X20839Y10975D01*
G01X20827Y10973D01*
G01X20815Y10967D01*
G01X20811Y10963D01*
G01X19759Y9910D01*
G01X19751Y9900D01*
G01X19749Y9894D01*
G01X19747Y9882D01*
G01X19747Y5685D01*
G01X19749Y5679D01*
G01X19753Y5669D01*
G01X19757Y5664D01*
G01X19761Y5660D01*
G01X19765Y5657D01*
G01X19770Y5654D01*
G01X19776Y5652D01*
G01X19781Y5651D01*
G01X19787Y5650D01*
G01X19794Y5651D01*
G01X19806Y5655D01*
G01X19823Y5664D01*
G01X19857Y5678D01*
G01X19875Y5684D01*
G01X19892Y5689D01*
G01X19911Y5693D01*
G01X19929Y5696D01*
G01X19947Y5698D01*
G01X19966Y5700D01*
G01X20002Y5700D01*
G01X20020Y5699D01*
G01X20038Y5696D01*
G01X20056Y5694D01*
G01X20073Y5690D01*
G01X20107Y5680D01*
G01X20141Y5666D01*
G01X20157Y5659D01*
G01X20172Y5650D01*
G01X20188Y5641D01*
G01X20202Y5631D01*
G01X20217Y5620D01*
G01X20231Y5609D01*
G01X20244Y5597D01*
G01X20268Y5571D01*
G01X20280Y5557D01*
G01X20291Y5543D01*
G01X20301Y5528D01*
G01X20310Y5513D01*
G01X20319Y5497D01*
G01X20333Y5465D01*
G01X20340Y5448D01*
G01X20350Y5414D01*
G01X20354Y5396D01*
G01X20357Y5378D01*
G01X20359Y5361D01*
G01X20360Y5343D01*
G01X20361Y5337D01*
G01X20365Y5325D01*
G01X20368Y5320D01*
G01X20372Y5316D01*
G01X20377Y5312D01*
G01X20382Y5309D01*
G01X20394Y5305D01*
G01X20406Y5305D01*
G01X20418Y5309D01*
G01X20424Y5312D01*
G01X20428Y5317D01*
G01X20474Y5363D01*
G01X20478Y5369D01*
G01X20480Y5374D01*
G01X20482Y5381D01*
G01X20482Y9964D01*
G01X20486Y9984D01*
G01X20492Y10004D01*
G01X20496Y10013D01*
G01X20502Y10022D01*
G01X20507Y10031D01*
G01X20521Y10047D01*
G01X21623Y11150D01*
G01X21631Y11160D01*
G01X21633Y11166D01*
G01X21635Y11178D01*
G01X21634Y11186D01*
G01X21632Y11192D01*
G01X21626Y11211D01*
G01X21621Y11229D01*
G01X21616Y11248D01*
G01X21613Y11267D01*
G01X21609Y11305D01*
G01X21609Y11342D01*
G01X21610Y11359D01*
G01X21612Y11376D01*
G01X21615Y11393D01*
G01X21623Y11427D01*
G01X21628Y11444D01*
G01X21634Y11460D01*
G01X21648Y11492D01*
G01X21656Y11507D01*
G01X21674Y11537D01*
G01X21684Y11551D01*
G01X21695Y11565D01*
G01X21707Y11578D01*
G01X21731Y11602D01*
G01X21744Y11614D01*
G01X21772Y11634D01*
G01X21787Y11644D01*
G01X21802Y11653D01*
G01X21817Y11661D01*
G01X21849Y11675D01*
G01X21865Y11681D01*
G01X21882Y11686D01*
G01X21898Y11690D01*
G01X21915Y11694D01*
G01X21933Y11697D01*
G01X21950Y11699D01*
G01X21967Y11700D01*
G01X22002Y11700D01*
G01X22019Y11699D01*
G01X22036Y11697D01*
G01X22054Y11694D01*
G01X22071Y11690D01*
G01X22087Y11686D01*
G01X22104Y11681D01*
G01X22120Y11675D01*
G01X22152Y11661D01*
G01X22168Y11653D01*
G01X22182Y11644D01*
G01X22197Y11634D01*
G01X22225Y11614D01*
G01X22238Y11602D01*
G01X22262Y11578D01*
G01X22274Y11565D01*
G01X22285Y11551D01*
G01X22295Y11537D01*
G01X22313Y11507D01*
G01X22321Y11492D01*
G01X22329Y11476D01*
G01X22341Y11444D01*
G01X22351Y11410D01*
G01X22357Y11376D01*
G01X22359Y11359D01*
G01X22360Y11342D01*
G01X22361Y11324D01*
G01X22359Y11290D01*
G01X22357Y11272D01*
G01X22351Y11238D01*
G01X22346Y11221D01*
G01X22341Y11205D01*
G01X22335Y11188D01*
G01X22329Y11172D01*
G01X22321Y11157D01*
G01X22313Y11141D01*
G01X22304Y11126D01*
G01X22295Y11112D01*
G01X22285Y11098D01*
G01X22274Y11084D01*
G01X22250Y11058D01*
G01X22238Y11046D01*
G01X22225Y11035D01*
G01X22211Y11024D01*
G01X22197Y11014D01*
G01X22182Y11005D01*
G01X22168Y10996D01*
G01X22136Y10980D01*
G01X22104Y10968D01*
G01X22087Y10963D01*
G01X22071Y10958D01*
G01X22054Y10955D01*
G01X22036Y10952D01*
G01X22019Y10950D01*
G01X21985Y10948D01*
G01X21965Y10949D01*
G01X21946Y10950D01*
G01X21908Y10956D01*
G01X21890Y10960D01*
G01X21871Y10966D01*
G01X21853Y10972D01*
G01X21846Y10974D01*
G01X21839Y10975D01*
G01X21827Y10973D01*
G01X21815Y10967D01*
G01X21811Y10963D01*
G01X20759Y9910D01*
G01X20751Y9900D01*
G01X20749Y9894D01*
G01X20747Y9882D01*
G01X20747Y5685D01*
G01X20749Y5679D01*
G01X20753Y5669D01*
G01X20757Y5664D01*
G01X20761Y5660D01*
G01X20765Y5657D01*
G01X20770Y5654D01*
G01X20776Y5652D01*
G01X20781Y5651D01*
G01X20787Y5650D01*
G01X20794Y5651D01*
G01X20806Y5655D01*
G01X20823Y5664D01*
G01X20857Y5678D01*
G01X20875Y5684D01*
G01X20892Y5689D01*
G01X20911Y5693D01*
G01X20929Y5696D01*
G01X20947Y5698D01*
G01X20966Y5700D01*
G01X21002Y5700D01*
G01X21019Y5699D01*
G01X21037Y5697D01*
G01X21054Y5694D01*
G01X21088Y5686D01*
G01X21105Y5681D01*
G01X21121Y5675D01*
G01X21153Y5661D01*
G01X21198Y5634D01*
G01X21212Y5624D01*
G01X21226Y5613D01*
G01X21239Y5601D01*
G01X21251Y5589D01*
G01X21275Y5563D01*
G01X21286Y5550D01*
G01X21296Y5535D01*
G01X21305Y5521D01*
G01X21314Y5506D01*
G01X21322Y5490D01*
G01X21336Y5458D01*
G01X21342Y5442D01*
G01X21347Y5425D01*
G01X21355Y5391D01*
G01X21357Y5374D01*
G01X21359Y5356D01*
G01X21360Y5350D01*
G01X21362Y5345D01*
G01X21365Y5339D01*
G01X21368Y5335D01*
G01X21372Y5330D01*
G01X21387Y5321D01*
G01X21393Y5320D01*
G01X21405Y5320D01*
G01X21417Y5324D01*
G01X21423Y5327D01*
G01X21470Y5374D01*
G01X21474Y5379D01*
G01X21478Y5385D01*
G01X21480Y5390D01*
G01X21482Y5396D01*
G01X21482Y9964D01*
G01X21486Y9984D01*
G01X21492Y10004D01*
G01X21496Y10013D01*
G01X21502Y10022D01*
G01X21507Y10031D01*
G01X21521Y10047D01*
G01X22623Y11150D01*
G01X22631Y11160D01*
G01X22633Y11166D01*
G01X22635Y11178D01*
G01X22634Y11186D01*
G01X22632Y11192D01*
G01X22626Y11211D01*
G01X22621Y11229D01*
G01X22616Y11248D01*
G01X22613Y11267D01*
G01X22609Y11305D01*
G01X22609Y11342D01*
G01X22610Y11359D01*
G01X22612Y11376D01*
G01X22615Y11393D01*
G01X22623Y11427D01*
G01X22628Y11444D01*
G01X22634Y11460D01*
G01X22648Y11492D01*
G01X22656Y11507D01*
G01X22674Y11537D01*
G01X22684Y11551D01*
G01X22695Y11565D01*
G01X22707Y11578D01*
G01X22731Y11602D01*
G01X22744Y11614D01*
G01X22772Y11634D01*
G01X22787Y11644D01*
G01X22802Y11653D01*
G01X22817Y11661D01*
G01X22849Y11675D01*
G01X22865Y11681D01*
G01X22882Y11686D01*
G01X22898Y11690D01*
G01X22915Y11694D01*
G01X22933Y11697D01*
G01X22950Y11699D01*
G01X22967Y11700D01*
G01X23002Y11700D01*
G01X23020Y11699D01*
G01X23038Y11697D01*
G01X23055Y11694D01*
G01X23073Y11690D01*
G01X23107Y11680D01*
G01X23124Y11674D01*
G01X23140Y11667D01*
G01X23156Y11659D01*
G01X23172Y11650D01*
G01X23187Y11641D01*
G01X23202Y11631D01*
G01X23216Y11621D01*
G01X23230Y11609D01*
G01X23256Y11585D01*
G01X23268Y11572D01*
G01X23290Y11544D01*
G01X23300Y11529D01*
G01X23309Y11514D01*
G01X23318Y11498D01*
G01X23326Y11482D01*
G01X23328Y11477D01*
G01X23336Y11469D01*
G01X23341Y11465D01*
G01X23345Y11463D01*
G01X23351Y11461D01*
G01X23356Y11459D01*
G01X23368Y11459D01*
G01X23373Y11461D01*
G01X23379Y11463D01*
G01X23384Y11465D01*
G01X23396Y11477D01*
G01X23398Y11482D01*
G01X23400Y11488D01*
G01X23402Y11493D01*
G01X23402Y11559D01*
G01X23398Y11571D01*
G01X23390Y11581D01*
G01X23087Y11884D01*
G01X23075Y11890D01*
G01X23063Y11892D01*
G37*

%LPC*%
G36*
G01X16822Y11162D02*
G01X16645Y11162D01*
G01X16663Y11130D01*
G01X16673Y11114D01*
G01X16683Y11100D01*
G01X16694Y11085D01*
G01X16706Y11072D01*
G01X16719Y11058D01*
G01X16732Y11046D01*
G01X16746Y11034D01*
G01X16760Y11023D01*
G01X16775Y11012D01*
G01X16790Y11003D01*
G01X16806Y10993D01*
G01X16822Y10985D01*
G01X16822Y11162D01*
G37*
G36*
G01X17324Y11162D02*
G01X17147Y11162D01*
G01X17147Y10985D01*
G01X17163Y10993D01*
G01X17179Y11003D01*
G01X17194Y11012D01*
G01X17209Y11023D01*
G01X17223Y11034D01*
G01X17237Y11046D01*
G01X17250Y11058D01*
G01X17263Y11072D01*
G01X17275Y11085D01*
G01X17286Y11100D01*
G01X17297Y11114D01*
G01X17324Y11162D01*
G37*
G36*
G01X17163Y11655D02*
G01X17147Y11663D01*
G01X17147Y11487D01*
G01X17324Y11487D01*
G01X17306Y11519D01*
G01X17297Y11534D01*
G01X17286Y11549D01*
G01X17275Y11563D01*
G01X17263Y11577D01*
G01X17237Y11603D01*
G01X17223Y11615D01*
G01X17209Y11626D01*
G01X17179Y11646D01*
G01X17163Y11655D01*
G37*
G36*
G01X16822Y11487D02*
G01X16822Y11663D01*
G01X16806Y11655D01*
G01X16790Y11646D01*
G01X16760Y11626D01*
G01X16746Y11615D01*
G01X16732Y11603D01*
G01X16706Y11577D01*
G01X16694Y11563D01*
G01X16683Y11549D01*
G01X16663Y11519D01*
G01X16645Y11487D01*
G01X16822Y11487D01*
G37*

%LPD*%
G36*
G01X35600Y14324D02*
G01X2269Y14324D01*
G01X2263Y14323D01*
G01X2258Y14321D01*
G01X2248Y14315D01*
G01X2244Y14310D01*
G01X2241Y14306D01*
G01X2238Y14301D01*
G01X2236Y14296D01*
G01X2235Y14290D01*
G01X2235Y12324D01*
G01X1769Y12324D01*
G01X1763Y12323D01*
G01X1758Y12321D01*
G01X1748Y12315D01*
G01X1744Y12310D01*
G01X1741Y12306D01*
G01X1738Y12301D01*
G01X1736Y12296D01*
G01X1735Y12290D01*
G01X1735Y9924D01*
G01X569Y9924D01*
G01X563Y9923D01*
G01X558Y9921D01*
G01X548Y9915D01*
G01X544Y9910D01*
G01X541Y9906D01*
G01X538Y9901D01*
G01X536Y9896D01*
G01X535Y9890D01*
G01X535Y7324D01*
G01X269Y7324D01*
G01X263Y7323D01*
G01X258Y7321D01*
G01X248Y7315D01*
G01X244Y7310D01*
G01X241Y7306D01*
G01X238Y7301D01*
G01X236Y7296D01*
G01X235Y7290D01*
G01X235Y4359D01*
G01X236Y4353D01*
G01X238Y4348D01*
G01X244Y4338D01*
G01X248Y4334D01*
G01X258Y4328D01*
G01X263Y4326D01*
G01X275Y4324D01*
G01X8235Y4324D01*
G01X8235Y3159D01*
G01X8236Y3153D01*
G01X8238Y3148D01*
G01X8244Y3138D01*
G01X8248Y3134D01*
G01X8258Y3128D01*
G01X8263Y3126D01*
G01X8275Y3124D01*
G01X8589Y3124D01*
G01X8595Y3125D01*
G01X8600Y3126D01*
G01X8605Y3128D01*
G01X8615Y3134D01*
G01X8619Y3138D01*
G01X8625Y3148D01*
G01X8627Y3153D01*
G01X8628Y3159D01*
G01X8629Y3164D01*
G01X8629Y3165D01*
G01X8606Y4345D01*
G01X8606Y4351D01*
G01X8602Y4363D01*
G01X8599Y4368D01*
G01X8595Y4372D01*
G01X8590Y4376D01*
G01X6487Y5905D01*
G01X6475Y5914D01*
G01X6464Y5924D01*
G01X6454Y5934D01*
G01X6444Y5945D01*
G01X6434Y5957D01*
G01X6418Y5981D01*
G01X6411Y5994D01*
G01X6405Y6008D01*
G01X6399Y6021D01*
G01X6394Y6035D01*
G01X6390Y6050D01*
G01X6387Y6064D01*
G01X6385Y6079D01*
G01X6384Y6094D01*
G01X6384Y9039D01*
G01X6385Y9054D01*
G01X6387Y9068D01*
G01X6390Y9083D01*
G01X6394Y9097D01*
G01X6399Y9111D01*
G01X6405Y9125D01*
G01X6411Y9138D01*
G01X6418Y9151D01*
G01X6426Y9164D01*
G01X6434Y9176D01*
G01X6464Y9209D01*
G01X6856Y9570D01*
G01X6864Y9580D01*
G01X6866Y9586D01*
G01X6868Y9593D01*
G01X6869Y9599D01*
G01X6869Y9949D01*
G01X6870Y9958D01*
G01X6872Y9967D01*
G01X6875Y9976D01*
G01X6879Y9984D01*
G01X6889Y10000D01*
G01X6901Y10014D01*
G01X6909Y10020D01*
G01X6916Y10025D01*
G01X6925Y10030D01*
G01X6933Y10033D01*
G01X6951Y10039D01*
G01X6960Y10040D01*
G01X7609Y10040D01*
G01X7618Y10039D01*
G01X7645Y10030D01*
G01X7653Y10025D01*
G01X7660Y10020D01*
G01X7668Y10014D01*
G01X7680Y10000D01*
G01X7690Y9984D01*
G01X7694Y9976D01*
G01X7697Y9967D01*
G01X7699Y9958D01*
G01X7700Y9949D01*
G01X7701Y9939D01*
G01X7701Y9309D01*
G01X7699Y9291D01*
G01X7697Y9282D01*
G01X7694Y9273D01*
G01X7690Y9264D01*
G01X7680Y9248D01*
G01X7674Y9241D01*
G01X7668Y9235D01*
G01X7660Y9229D01*
G01X7653Y9223D01*
G01X7645Y9219D01*
G01X7636Y9215D01*
G01X7627Y9212D01*
G01X7618Y9210D01*
G01X7600Y9208D01*
G01X7214Y9208D01*
G01X7208Y9207D01*
G01X7202Y9204D01*
G01X7192Y9198D01*
G01X7033Y9051D01*
G01X7029Y9046D01*
G01X7025Y9040D01*
G01X7021Y9028D01*
G01X7020Y9021D01*
G01X7021Y9016D01*
G01X7022Y9010D01*
G01X7024Y9005D01*
G01X7030Y8995D01*
G01X7034Y8991D01*
G01X7044Y8985D01*
G01X7049Y8983D01*
G01X7055Y8982D01*
G01X7060Y8981D01*
G01X7067Y8982D01*
G01X7074Y8984D01*
G01X7080Y8987D01*
G01X7097Y8996D01*
G01X7133Y9012D01*
G01X7151Y9018D01*
G01X7170Y9024D01*
G01X7188Y9029D01*
G01X7207Y9033D01*
G01X7226Y9036D01*
G01X7246Y9038D01*
G01X7265Y9040D01*
G01X7303Y9040D01*
G01X7322Y9039D01*
G01X7340Y9037D01*
G01X7359Y9034D01*
G01X7377Y9030D01*
G01X7413Y9020D01*
G01X7431Y9014D01*
G01X7448Y9007D01*
G01X7482Y8991D01*
G01X7514Y8971D01*
G01X7529Y8961D01*
G01X7544Y8950D01*
G01X7558Y8938D01*
G01X7572Y8925D01*
G01X7585Y8912D01*
G01X7598Y8898D01*
G01X7610Y8884D01*
G01X7621Y8869D01*
G01X7632Y8853D01*
G01X7642Y8838D01*
G01X7651Y8821D01*
G01X7659Y8805D01*
G01X7667Y8788D01*
G01X7674Y8770D01*
G01X7680Y8753D01*
G01X7686Y8735D01*
G01X7694Y8699D01*
G01X7697Y8680D01*
G01X7699Y8662D01*
G01X7701Y8624D01*
G01X7700Y8606D01*
G01X7699Y8587D01*
G01X7697Y8568D01*
G01X7694Y8550D01*
G01X7686Y8514D01*
G01X7674Y8478D01*
G01X7667Y8461D01*
G01X7651Y8427D01*
G01X7642Y8411D01*
G01X7632Y8395D01*
G01X7610Y8365D01*
G01X7598Y8351D01*
G01X7585Y8337D01*
G01X7572Y8324D01*
G01X7558Y8311D01*
G01X7544Y8299D01*
G01X7514Y8277D01*
G01X7498Y8267D01*
G01X7482Y8258D01*
G01X7465Y8249D01*
G01X7431Y8235D01*
G01X7395Y8223D01*
G01X7359Y8215D01*
G01X7340Y8212D01*
G01X7322Y8210D01*
G01X7303Y8209D01*
G01X7285Y8208D01*
G01X7247Y8210D01*
G01X7228Y8212D01*
G01X7210Y8215D01*
G01X7191Y8219D01*
G01X7155Y8229D01*
G01X7137Y8235D01*
G01X7120Y8242D01*
G01X7102Y8250D01*
G01X7086Y8259D01*
G01X7069Y8268D01*
G01X7053Y8278D01*
G01X7038Y8289D01*
G01X7023Y8301D01*
G01X7009Y8313D01*
G01X6995Y8326D01*
G01X6982Y8339D01*
G01X6969Y8353D01*
G01X6957Y8368D01*
G01X6953Y8372D01*
G01X6948Y8376D01*
G01X6943Y8379D01*
G01X6937Y8381D01*
G01X6932Y8383D01*
G01X6920Y8383D01*
G01X6914Y8382D01*
G01X6909Y8380D01*
G01X6904Y8377D01*
G01X6899Y8373D01*
G01X6895Y8369D01*
G01X6892Y8365D01*
G01X6889Y8360D01*
G01X6887Y8354D01*
G01X6886Y8349D01*
G01X6886Y7900D01*
G01X6887Y7894D01*
G01X6889Y7889D01*
G01X6895Y7879D01*
G01X6899Y7875D01*
G01X6909Y7869D01*
G01X6914Y7867D01*
G01X6926Y7865D01*
G01X6932Y7866D01*
G01X6937Y7867D01*
G01X6943Y7870D01*
G01X6953Y7876D01*
G01X6957Y7881D01*
G01X6969Y7895D01*
G01X6995Y7923D01*
G01X7009Y7936D01*
G01X7023Y7948D01*
G01X7053Y7970D01*
G01X7069Y7980D01*
G01X7086Y7990D01*
G01X7102Y7998D01*
G01X7120Y8006D01*
G01X7137Y8013D01*
G01X7155Y8020D01*
G01X7191Y8030D01*
G01X7210Y8033D01*
G01X7228Y8036D01*
G01X7247Y8039D01*
G01X7266Y8040D01*
G01X7303Y8040D01*
G01X7322Y8039D01*
G01X7340Y8037D01*
G01X7359Y8034D01*
G01X7377Y8030D01*
G01X7413Y8020D01*
G01X7431Y8014D01*
G01X7448Y8007D01*
G01X7482Y7991D01*
G01X7514Y7971D01*
G01X7529Y7961D01*
G01X7544Y7950D01*
G01X7558Y7938D01*
G01X7572Y7925D01*
G01X7585Y7912D01*
G01X7598Y7898D01*
G01X7610Y7884D01*
G01X7621Y7869D01*
G01X7632Y7853D01*
G01X7642Y7838D01*
G01X7651Y7821D01*
G01X7659Y7805D01*
G01X7667Y7788D01*
G01X7674Y7770D01*
G01X7680Y7753D01*
G01X7686Y7735D01*
G01X7694Y7699D01*
G01X7697Y7680D01*
G01X7699Y7662D01*
G01X7701Y7624D01*
G01X7700Y7606D01*
G01X7699Y7587D01*
G01X7697Y7568D01*
G01X7694Y7550D01*
G01X7686Y7514D01*
G01X7674Y7478D01*
G01X7667Y7461D01*
G01X7651Y7427D01*
G01X7642Y7411D01*
G01X7632Y7395D01*
G01X7610Y7365D01*
G01X7598Y7351D01*
G01X7585Y7337D01*
G01X7572Y7324D01*
G01X7558Y7311D01*
G01X7544Y7299D01*
G01X7514Y7277D01*
G01X7498Y7267D01*
G01X7482Y7258D01*
G01X7465Y7249D01*
G01X7431Y7235D01*
G01X7395Y7223D01*
G01X7359Y7215D01*
G01X7340Y7212D01*
G01X7322Y7210D01*
G01X7303Y7209D01*
G01X7285Y7208D01*
G01X7247Y7210D01*
G01X7228Y7212D01*
G01X7210Y7215D01*
G01X7191Y7219D01*
G01X7155Y7229D01*
G01X7137Y7235D01*
G01X7120Y7242D01*
G01X7102Y7250D01*
G01X7086Y7259D01*
G01X7069Y7268D01*
G01X7053Y7278D01*
G01X7038Y7289D01*
G01X7023Y7301D01*
G01X7009Y7313D01*
G01X6995Y7326D01*
G01X6982Y7339D01*
G01X6969Y7353D01*
G01X6957Y7368D01*
G01X6953Y7372D01*
G01X6948Y7376D01*
G01X6943Y7379D01*
G01X6937Y7381D01*
G01X6932Y7383D01*
G01X6920Y7383D01*
G01X6914Y7382D01*
G01X6909Y7380D01*
G01X6904Y7377D01*
G01X6899Y7373D01*
G01X6895Y7369D01*
G01X6892Y7365D01*
G01X6889Y7360D01*
G01X6887Y7354D01*
G01X6886Y7349D01*
G01X6886Y6900D01*
G01X6887Y6894D01*
G01X6889Y6889D01*
G01X6895Y6879D01*
G01X6899Y6875D01*
G01X6909Y6869D01*
G01X6914Y6867D01*
G01X6926Y6865D01*
G01X6932Y6866D01*
G01X6937Y6867D01*
G01X6943Y6870D01*
G01X6953Y6876D01*
G01X6957Y6881D01*
G01X6969Y6895D01*
G01X6995Y6923D01*
G01X7009Y6936D01*
G01X7023Y6948D01*
G01X7053Y6970D01*
G01X7069Y6980D01*
G01X7086Y6990D01*
G01X7102Y6998D01*
G01X7120Y7006D01*
G01X7137Y7013D01*
G01X7155Y7020D01*
G01X7191Y7030D01*
G01X7210Y7033D01*
G01X7228Y7036D01*
G01X7247Y7039D01*
G01X7266Y7040D01*
G01X7303Y7040D01*
G01X7322Y7039D01*
G01X7340Y7037D01*
G01X7359Y7034D01*
G01X7377Y7030D01*
G01X7413Y7020D01*
G01X7431Y7014D01*
G01X7448Y7007D01*
G01X7482Y6991D01*
G01X7514Y6971D01*
G01X7529Y6961D01*
G01X7544Y6950D01*
G01X7558Y6938D01*
G01X7572Y6925D01*
G01X7585Y6912D01*
G01X7598Y6898D01*
G01X7610Y6884D01*
G01X7621Y6869D01*
G01X7632Y6853D01*
G01X7642Y6838D01*
G01X7651Y6821D01*
G01X7659Y6805D01*
G01X7667Y6788D01*
G01X7674Y6770D01*
G01X7680Y6753D01*
G01X7686Y6735D01*
G01X7694Y6699D01*
G01X7697Y6680D01*
G01X7699Y6662D01*
G01X7701Y6624D01*
G01X7700Y6606D01*
G01X7699Y6587D01*
G01X7697Y6568D01*
G01X7694Y6550D01*
G01X7686Y6514D01*
G01X7674Y6478D01*
G01X7667Y6461D01*
G01X7651Y6427D01*
G01X7642Y6411D01*
G01X7632Y6395D01*
G01X7610Y6365D01*
G01X7598Y6351D01*
G01X7585Y6337D01*
G01X7572Y6324D01*
G01X7558Y6311D01*
G01X7544Y6299D01*
G01X7514Y6277D01*
G01X7498Y6267D01*
G01X7482Y6258D01*
G01X7465Y6249D01*
G01X7431Y6235D01*
G01X7395Y6223D01*
G01X7359Y6215D01*
G01X7340Y6212D01*
G01X7322Y6210D01*
G01X7303Y6209D01*
G01X7285Y6208D01*
G01X7247Y6210D01*
G01X7228Y6212D01*
G01X7210Y6215D01*
G01X7191Y6219D01*
G01X7155Y6229D01*
G01X7137Y6235D01*
G01X7120Y6242D01*
G01X7102Y6250D01*
G01X7086Y6259D01*
G01X7069Y6268D01*
G01X7053Y6278D01*
G01X7038Y6289D01*
G01X7023Y6301D01*
G01X7009Y6313D01*
G01X6995Y6326D01*
G01X6982Y6339D01*
G01X6969Y6353D01*
G01X6957Y6368D01*
G01X6953Y6372D01*
G01X6948Y6376D01*
G01X6943Y6379D01*
G01X6937Y6381D01*
G01X6932Y6383D01*
G01X6920Y6383D01*
G01X6914Y6382D01*
G01X6909Y6380D01*
G01X6904Y6377D01*
G01X6899Y6373D01*
G01X6895Y6369D01*
G01X6892Y6365D01*
G01X6889Y6360D01*
G01X6887Y6354D01*
G01X6886Y6349D01*
G01X6886Y6250D01*
G01X6887Y6244D01*
G01X6890Y6238D01*
G01X6893Y6233D01*
G01X6897Y6228D01*
G01X6902Y6224D01*
G01X9002Y4697D01*
G01X9014Y4688D01*
G01X9025Y4679D01*
G01X9035Y4669D01*
G01X9045Y4658D01*
G01X9054Y4647D01*
G01X9070Y4623D01*
G01X9077Y4610D01*
G01X9089Y4584D01*
G01X9094Y4570D01*
G01X9098Y4556D01*
G01X9101Y4542D01*
G01X9105Y4514D01*
G01X9105Y4499D01*
G01X9131Y3164D01*
G01X9132Y3157D01*
G01X9133Y3151D01*
G01X9136Y3146D01*
G01X9139Y3140D01*
G01X9143Y3136D01*
G01X9148Y3132D01*
G01X9153Y3129D01*
G01X9159Y3126D01*
G01X9171Y3124D01*
G01X10677Y3124D01*
G01X10683Y3125D01*
G01X10688Y3126D01*
G01X10694Y3128D01*
G01X10699Y3131D01*
G01X10703Y3134D01*
G01X10707Y3138D01*
G01X10711Y3143D01*
G01X10715Y3153D01*
G01X10717Y3159D01*
G01X10717Y5994D01*
G01X10713Y6006D01*
G01X10705Y6016D01*
G01X10485Y6236D01*
G01X10473Y6242D01*
G01X10461Y6244D01*
G01X10453Y6243D01*
G01X10446Y6241D01*
G01X10428Y6234D01*
G01X10411Y6228D01*
G01X10393Y6223D01*
G01X10376Y6218D01*
G01X10358Y6215D01*
G01X10339Y6212D01*
G01X10321Y6210D01*
G01X10285Y6208D01*
G01X10247Y6210D01*
G01X10229Y6212D01*
G01X10210Y6215D01*
G01X10174Y6223D01*
G01X10138Y6235D01*
G01X10104Y6249D01*
G01X10087Y6258D01*
G01X10071Y6267D01*
G01X10055Y6277D01*
G01X10025Y6299D01*
G01X10011Y6311D01*
G01X9997Y6324D01*
G01X9984Y6337D01*
G01X9971Y6351D01*
G01X9959Y6365D01*
G01X9937Y6395D01*
G01X9927Y6411D01*
G01X9918Y6427D01*
G01X9902Y6461D01*
G01X9895Y6478D01*
G01X9889Y6496D01*
G01X9879Y6532D01*
G01X9875Y6550D01*
G01X9872Y6568D01*
G01X9870Y6587D01*
G01X9869Y6606D01*
G01X9869Y6643D01*
G01X9870Y6662D01*
G01X9872Y6680D01*
G01X9875Y6699D01*
G01X9879Y6717D01*
G01X9889Y6753D01*
G01X9895Y6770D01*
G01X9902Y6788D01*
G01X9910Y6805D01*
G01X9918Y6821D01*
G01X9927Y6838D01*
G01X9937Y6853D01*
G01X9948Y6869D01*
G01X9959Y6884D01*
G01X9971Y6898D01*
G01X9984Y6912D01*
G01X9997Y6925D01*
G01X10011Y6938D01*
G01X10025Y6950D01*
G01X10040Y6961D01*
G01X10055Y6971D01*
G01X10087Y6991D01*
G01X10121Y7007D01*
G01X10138Y7014D01*
G01X10156Y7020D01*
G01X10192Y7030D01*
G01X10210Y7034D01*
G01X10229Y7037D01*
G01X10247Y7039D01*
G01X10266Y7040D01*
G01X10303Y7040D01*
G01X10322Y7039D01*
G01X10340Y7037D01*
G01X10359Y7034D01*
G01X10377Y7030D01*
G01X10413Y7020D01*
G01X10431Y7014D01*
G01X10448Y7007D01*
G01X10482Y6991D01*
G01X10514Y6971D01*
G01X10529Y6961D01*
G01X10544Y6950D01*
G01X10558Y6938D01*
G01X10572Y6925D01*
G01X10585Y6912D01*
G01X10598Y6898D01*
G01X10610Y6884D01*
G01X10621Y6869D01*
G01X10632Y6853D01*
G01X10642Y6838D01*
G01X10651Y6821D01*
G01X10659Y6805D01*
G01X10667Y6788D01*
G01X10674Y6770D01*
G01X10680Y6753D01*
G01X10686Y6735D01*
G01X10694Y6699D01*
G01X10697Y6680D01*
G01X10699Y6662D01*
G01X10701Y6624D01*
G01X10699Y6588D01*
G01X10697Y6569D01*
G01X10694Y6551D01*
G01X10686Y6515D01*
G01X10681Y6498D01*
G01X10675Y6480D01*
G01X10668Y6463D01*
G01X10666Y6456D01*
G01X10665Y6448D01*
G01X10665Y6442D01*
G01X10667Y6435D01*
G01X10669Y6430D01*
G01X10673Y6424D01*
G01X10677Y6420D01*
G01X10943Y6153D01*
G01X10957Y6137D01*
G01X10963Y6129D01*
G01X10968Y6119D01*
G01X10972Y6110D01*
G01X10976Y6100D01*
G01X10982Y6070D01*
G01X10982Y3159D01*
G01X10984Y3153D01*
G01X10988Y3143D01*
G01X10992Y3138D01*
G01X10996Y3134D01*
G01X11000Y3131D01*
G01X11005Y3128D01*
G01X11011Y3126D01*
G01X11016Y3125D01*
G01X11022Y3124D01*
G01X11661Y3124D01*
G01X11667Y3125D01*
G01X11672Y3126D01*
G01X11678Y3128D01*
G01X11683Y3131D01*
G01X11687Y3134D01*
G01X11691Y3138D01*
G01X11695Y3143D01*
G01X11699Y3153D01*
G01X11701Y3159D01*
G01X11701Y6010D01*
G01X11697Y6022D01*
G01X11689Y6032D01*
G01X10485Y7236D01*
G01X10473Y7242D01*
G01X10461Y7244D01*
G01X10453Y7243D01*
G01X10446Y7241D01*
G01X10428Y7234D01*
G01X10411Y7228D01*
G01X10393Y7223D01*
G01X10376Y7218D01*
G01X10358Y7215D01*
G01X10339Y7212D01*
G01X10321Y7210D01*
G01X10285Y7208D01*
G01X10247Y7210D01*
G01X10229Y7212D01*
G01X10210Y7215D01*
G01X10174Y7223D01*
G01X10138Y7235D01*
G01X10104Y7249D01*
G01X10087Y7258D01*
G01X10071Y7267D01*
G01X10055Y7277D01*
G01X10025Y7299D01*
G01X10011Y7311D01*
G01X9997Y7324D01*
G01X9984Y7337D01*
G01X9971Y7351D01*
G01X9959Y7365D01*
G01X9937Y7395D01*
G01X9927Y7411D01*
G01X9918Y7427D01*
G01X9902Y7461D01*
G01X9895Y7478D01*
G01X9889Y7496D01*
G01X9879Y7532D01*
G01X9875Y7550D01*
G01X9872Y7568D01*
G01X9870Y7587D01*
G01X9869Y7606D01*
G01X9869Y7643D01*
G01X9870Y7662D01*
G01X9872Y7680D01*
G01X9875Y7699D01*
G01X9879Y7717D01*
G01X9889Y7753D01*
G01X9895Y7770D01*
G01X9902Y7788D01*
G01X9910Y7805D01*
G01X9918Y7821D01*
G01X9927Y7838D01*
G01X9937Y7853D01*
G01X9948Y7869D01*
G01X9959Y7884D01*
G01X9971Y7898D01*
G01X9984Y7912D01*
G01X9997Y7925D01*
G01X10011Y7938D01*
G01X10025Y7950D01*
G01X10040Y7961D01*
G01X10055Y7971D01*
G01X10087Y7991D01*
G01X10121Y8007D01*
G01X10138Y8014D01*
G01X10156Y8020D01*
G01X10192Y8030D01*
G01X10210Y8034D01*
G01X10229Y8037D01*
G01X10247Y8039D01*
G01X10266Y8040D01*
G01X10303Y8040D01*
G01X10322Y8039D01*
G01X10340Y8037D01*
G01X10359Y8034D01*
G01X10377Y8030D01*
G01X10413Y8020D01*
G01X10431Y8014D01*
G01X10448Y8007D01*
G01X10482Y7991D01*
G01X10514Y7971D01*
G01X10529Y7961D01*
G01X10544Y7950D01*
G01X10558Y7938D01*
G01X10572Y7925D01*
G01X10585Y7912D01*
G01X10598Y7898D01*
G01X10610Y7884D01*
G01X10621Y7869D01*
G01X10632Y7853D01*
G01X10642Y7838D01*
G01X10651Y7821D01*
G01X10659Y7805D01*
G01X10667Y7788D01*
G01X10674Y7770D01*
G01X10680Y7753D01*
G01X10686Y7735D01*
G01X10694Y7699D01*
G01X10697Y7680D01*
G01X10699Y7662D01*
G01X10701Y7624D01*
G01X10699Y7588D01*
G01X10697Y7569D01*
G01X10694Y7551D01*
G01X10686Y7515D01*
G01X10681Y7498D01*
G01X10675Y7480D01*
G01X10668Y7463D01*
G01X10666Y7456D01*
G01X10665Y7448D01*
G01X10665Y7442D01*
G01X10667Y7435D01*
G01X10669Y7430D01*
G01X10673Y7424D01*
G01X10677Y7420D01*
G01X11927Y6169D01*
G01X11941Y6153D01*
G01X11947Y6145D01*
G01X11952Y6135D01*
G01X11956Y6126D01*
G01X11960Y6116D01*
G01X11966Y6086D01*
G01X11966Y3159D01*
G01X11968Y3153D01*
G01X11972Y3143D01*
G01X11976Y3138D01*
G01X11980Y3134D01*
G01X11984Y3131D01*
G01X11989Y3128D01*
G01X11995Y3126D01*
G01X12000Y3125D01*
G01X12006Y3124D01*
G01X12646Y3124D01*
G01X12651Y3125D01*
G01X12657Y3126D01*
G01X12662Y3128D01*
G01X12672Y3134D01*
G01X12676Y3138D01*
G01X12682Y3148D01*
G01X12684Y3153D01*
G01X12685Y3159D01*
G01X12686Y3164D01*
G01X12686Y3235D01*
G01X12687Y3246D01*
G01X12690Y3257D01*
G01X12693Y3267D01*
G01X12701Y3287D01*
G01X12707Y3297D01*
G01X12713Y3306D01*
G01X12720Y3314D01*
G01X12728Y3322D01*
G01X12736Y3329D01*
G01X12745Y3335D01*
G01X12755Y3341D01*
G01X12771Y3349D01*
G01X12777Y3354D01*
G01X15590Y6167D01*
G01X15594Y6172D01*
G01X15598Y6178D01*
G01X15600Y6183D01*
G01X15602Y6189D01*
G01X15602Y10935D01*
G01X15606Y10955D01*
G01X15612Y10975D01*
G01X15616Y10984D01*
G01X15622Y10994D01*
G01X15627Y11002D01*
G01X15641Y11018D01*
G01X16748Y12125D01*
G01X16757Y12131D01*
G01X16765Y12137D01*
G01X16774Y12142D01*
G01X16784Y12147D01*
G01X16804Y12153D01*
G01X16814Y12155D01*
G01X16824Y12156D01*
G01X16835Y12157D01*
G01X23135Y12157D01*
G01X23155Y12155D01*
G01X23165Y12153D01*
G01X23185Y12147D01*
G01X23195Y12142D01*
G01X23204Y12137D01*
G01X23212Y12131D01*
G01X23221Y12125D01*
G01X23636Y11710D01*
G01X23642Y11702D01*
G01X23648Y11693D01*
G01X23658Y11673D01*
G01X23664Y11653D01*
G01X23666Y11642D01*
G01X23667Y11632D01*
G01X23669Y11620D01*
G01X23672Y11614D01*
G01X23675Y11609D01*
G01X23679Y11605D01*
G01X23684Y11601D01*
G01X23689Y11598D01*
G01X23701Y11594D01*
G01X23713Y11594D01*
G01X23718Y11596D01*
G01X23724Y11598D01*
G01X23729Y11601D01*
G01X23733Y11604D01*
G01X23747Y11616D01*
G01X23777Y11638D01*
G01X23792Y11648D01*
G01X23808Y11657D01*
G01X23825Y11665D01*
G01X23859Y11679D01*
G01X23876Y11684D01*
G01X23894Y11689D01*
G01X23912Y11693D01*
G01X23948Y11699D01*
G01X23966Y11700D01*
G01X24002Y11700D01*
G01X24019Y11699D01*
G01X24036Y11697D01*
G01X24054Y11694D01*
G01X24071Y11690D01*
G01X24087Y11686D01*
G01X24104Y11681D01*
G01X24120Y11675D01*
G01X24152Y11661D01*
G01X24168Y11653D01*
G01X24182Y11644D01*
G01X24197Y11634D01*
G01X24225Y11614D01*
G01X24238Y11602D01*
G01X24262Y11578D01*
G01X24274Y11565D01*
G01X24285Y11551D01*
G01X24295Y11537D01*
G01X24313Y11507D01*
G01X24321Y11492D01*
G01X24329Y11476D01*
G01X24341Y11444D01*
G01X24351Y11410D01*
G01X24357Y11376D01*
G01X24359Y11359D01*
G01X24360Y11342D01*
G01X24361Y11324D01*
G01X24359Y11290D01*
G01X24357Y11272D01*
G01X24351Y11238D01*
G01X24346Y11221D01*
G01X24341Y11205D01*
G01X24335Y11188D01*
G01X24329Y11172D01*
G01X24321Y11157D01*
G01X24313Y11141D01*
G01X24304Y11126D01*
G01X24295Y11112D01*
G01X24285Y11098D01*
G01X24274Y11084D01*
G01X24250Y11058D01*
G01X24238Y11046D01*
G01X24225Y11035D01*
G01X24211Y11024D01*
G01X24197Y11014D01*
G01X24182Y11005D01*
G01X24168Y10996D01*
G01X24136Y10980D01*
G01X24104Y10968D01*
G01X24087Y10963D01*
G01X24071Y10958D01*
G01X24054Y10955D01*
G01X24036Y10952D01*
G01X24019Y10950D01*
G01X23985Y10948D01*
G01X23965Y10949D01*
G01X23946Y10950D01*
G01X23908Y10956D01*
G01X23889Y10961D01*
G01X23871Y10966D01*
G01X23853Y10972D01*
G01X23846Y10974D01*
G01X23839Y10975D01*
G01X23833Y10974D01*
G01X23826Y10973D01*
G01X23821Y10970D01*
G01X23815Y10967D01*
G01X22631Y9783D01*
G01X22623Y9773D01*
G01X22621Y9767D01*
G01X22619Y9755D01*
G01X22619Y5578D01*
G01X22621Y5572D01*
G01X22625Y5562D01*
G01X22629Y5557D01*
G01X22633Y5553D01*
G01X22637Y5550D01*
G01X22642Y5547D01*
G01X22648Y5545D01*
G01X22653Y5544D01*
G01X22659Y5543D01*
G01X22671Y5545D01*
G01X22676Y5547D01*
G01X22682Y5550D01*
G01X22690Y5558D01*
G01X22702Y5572D01*
G01X22726Y5598D01*
G01X22740Y5610D01*
G01X22753Y5621D01*
G01X22768Y5631D01*
G01X22782Y5641D01*
G01X22798Y5651D01*
G01X22813Y5659D01*
G01X22829Y5667D01*
G01X22846Y5674D01*
G01X22862Y5680D01*
G01X22896Y5690D01*
G01X22914Y5694D01*
G01X22931Y5697D01*
G01X22949Y5699D01*
G01X22967Y5700D01*
G01X23002Y5700D01*
G01X23019Y5699D01*
G01X23036Y5697D01*
G01X23054Y5694D01*
G01X23071Y5690D01*
G01X23087Y5686D01*
G01X23104Y5681D01*
G01X23120Y5675D01*
G01X23152Y5661D01*
G01X23168Y5653D01*
G01X23182Y5644D01*
G01X23197Y5634D01*
G01X23225Y5614D01*
G01X23238Y5602D01*
G01X23262Y5578D01*
G01X23274Y5565D01*
G01X23285Y5551D01*
G01X23295Y5537D01*
G01X23313Y5507D01*
G01X23321Y5492D01*
G01X23329Y5476D01*
G01X23341Y5444D01*
G01X23351Y5410D01*
G01X23357Y5376D01*
G01X23359Y5359D01*
G01X23360Y5342D01*
G01X23361Y5324D01*
G01X23359Y5290D01*
G01X23357Y5272D01*
G01X23351Y5238D01*
G01X23346Y5221D01*
G01X23341Y5205D01*
G01X23335Y5188D01*
G01X23329Y5172D01*
G01X23321Y5157D01*
G01X23313Y5141D01*
G01X23304Y5126D01*
G01X23295Y5112D01*
G01X23285Y5098D01*
G01X23274Y5084D01*
G01X23250Y5058D01*
G01X23238Y5046D01*
G01X23225Y5035D01*
G01X23211Y5024D01*
G01X23197Y5014D01*
G01X23182Y5005D01*
G01X23168Y4996D01*
G01X23136Y4980D01*
G01X23104Y4968D01*
G01X23087Y4963D01*
G01X23071Y4958D01*
G01X23054Y4955D01*
G01X23036Y4952D01*
G01X23019Y4950D01*
G01X22985Y4948D01*
G01X22949Y4950D01*
G01X22931Y4952D01*
G01X22914Y4955D01*
G01X22896Y4959D01*
G01X22879Y4963D01*
G01X22862Y4969D01*
G01X22846Y4975D01*
G01X22829Y4982D01*
G01X22813Y4990D01*
G01X22798Y4998D01*
G01X22782Y5007D01*
G01X22768Y5017D01*
G01X22753Y5028D01*
G01X22740Y5039D01*
G01X22726Y5051D01*
G01X22714Y5063D01*
G01X22702Y5077D01*
G01X22690Y5090D01*
G01X22686Y5095D01*
G01X22682Y5098D01*
G01X22676Y5101D01*
G01X22671Y5103D01*
G01X22665Y5105D01*
G01X22653Y5105D01*
G01X22648Y5104D01*
G01X22642Y5102D01*
G01X22637Y5099D01*
G01X22625Y5087D01*
G01X22621Y5077D01*
G01X22619Y5071D01*
G01X22619Y4595D01*
G01X22617Y4585D01*
G01X22615Y4574D01*
G01X22613Y4564D01*
G01X22609Y4555D01*
G01X22605Y4545D01*
G01X22600Y4536D01*
G01X22594Y4527D01*
G01X22587Y4519D01*
G01X22580Y4512D01*
G01X21821Y3752D01*
G01X21813Y3742D01*
G01X21811Y3736D01*
G01X21809Y3724D01*
G01X21809Y3159D01*
G01X21811Y3153D01*
G01X21815Y3143D01*
G01X21819Y3138D01*
G01X21823Y3134D01*
G01X21827Y3131D01*
G01X21832Y3128D01*
G01X21838Y3126D01*
G01X21843Y3125D01*
G01X21849Y3124D01*
G01X22512Y3124D01*
G01X22518Y3125D01*
G01X22523Y3126D01*
G01X22529Y3128D01*
G01X22534Y3131D01*
G01X22539Y3135D01*
G01X22543Y3139D01*
G01X22546Y3144D01*
G01X22558Y3162D01*
G01X22573Y3177D01*
G01X22581Y3183D01*
G01X22599Y3195D01*
G01X22619Y3203D01*
G01X22629Y3206D01*
G01X22639Y3208D01*
G01X22661Y3210D01*
G01X22812Y3210D01*
G01X22819Y3212D01*
G01X22824Y3214D01*
G01X22830Y3217D01*
G01X23146Y3533D01*
G01X23150Y3539D01*
G01X23152Y3544D01*
G01X23154Y3551D01*
G01X23154Y3921D01*
G01X23158Y3941D01*
G01X23164Y3961D01*
G01X23168Y3970D01*
G01X23174Y3980D01*
G01X23179Y3988D01*
G01X23193Y4004D01*
G01X24073Y4884D01*
G01X24077Y4889D01*
G01X24081Y4895D01*
G01X24083Y4900D01*
G01X24085Y4906D01*
G01X24085Y4918D01*
G01X24083Y4924D01*
G01X24079Y4934D01*
G01X24075Y4939D01*
G01X24071Y4943D01*
G01X24067Y4946D01*
G01X24062Y4949D01*
G01X24056Y4951D01*
G01X24051Y4952D01*
G01X24045Y4953D01*
G01X24039Y4952D01*
G01X24021Y4950D01*
G01X23985Y4948D01*
G01X23967Y4949D01*
G01X23950Y4950D01*
G01X23933Y4952D01*
G01X23915Y4955D01*
G01X23898Y4958D01*
G01X23882Y4963D01*
G01X23865Y4968D01*
G01X23833Y4980D01*
G01X23817Y4988D01*
G01X23802Y4996D01*
G01X23772Y5014D01*
G01X23758Y5024D01*
G01X23744Y5035D01*
G01X23731Y5046D01*
G01X23719Y5058D01*
G01X23695Y5084D01*
G01X23684Y5098D01*
G01X23674Y5112D01*
G01X23665Y5126D01*
G01X23656Y5141D01*
G01X23648Y5157D01*
G01X23641Y5172D01*
G01X23634Y5188D01*
G01X23628Y5205D01*
G01X23623Y5221D01*
G01X23615Y5255D01*
G01X23612Y5272D01*
G01X23610Y5290D01*
G01X23609Y5307D01*
G01X23609Y5342D01*
G01X23610Y5359D01*
G01X23612Y5376D01*
G01X23615Y5393D01*
G01X23623Y5427D01*
G01X23628Y5444D01*
G01X23634Y5460D01*
G01X23648Y5492D01*
G01X23656Y5507D01*
G01X23674Y5537D01*
G01X23684Y5551D01*
G01X23695Y5565D01*
G01X23707Y5578D01*
G01X23731Y5602D01*
G01X23744Y5614D01*
G01X23772Y5634D01*
G01X23787Y5644D01*
G01X23802Y5653D01*
G01X23817Y5661D01*
G01X23849Y5675D01*
G01X23865Y5681D01*
G01X23882Y5686D01*
G01X23898Y5690D01*
G01X23915Y5694D01*
G01X23933Y5697D01*
G01X23950Y5699D01*
G01X23967Y5700D01*
G01X24003Y5700D01*
G01X24022Y5698D01*
G01X24040Y5696D01*
G01X24059Y5693D01*
G01X24077Y5689D01*
G01X24095Y5684D01*
G01X24113Y5678D01*
G01X24130Y5671D01*
G01X24164Y5655D01*
G01X24170Y5652D01*
G01X24176Y5650D01*
G01X24189Y5650D01*
G01X24194Y5652D01*
G01X24200Y5653D01*
G01X24205Y5656D01*
G01X24217Y5668D01*
G01X24219Y5673D01*
G01X24221Y5679D01*
G01X24223Y5684D01*
G01X24223Y10705D01*
G01X24227Y10725D01*
G01X24233Y10745D01*
G01X24237Y10754D01*
G01X24243Y10763D01*
G01X24248Y10772D01*
G01X24262Y10788D01*
G01X24623Y11150D01*
G01X24631Y11160D01*
G01X24635Y11172D01*
G01X24635Y11178D01*
G01X24634Y11185D01*
G01X24632Y11192D01*
G01X24626Y11211D01*
G01X24621Y11229D01*
G01X24616Y11248D01*
G01X24613Y11267D01*
G01X24609Y11305D01*
G01X24609Y11342D01*
G01X24610Y11359D01*
G01X24612Y11376D01*
G01X24615Y11393D01*
G01X24623Y11427D01*
G01X24628Y11444D01*
G01X24634Y11460D01*
G01X24648Y11492D01*
G01X24656Y11507D01*
G01X24674Y11537D01*
G01X24684Y11551D01*
G01X24695Y11565D01*
G01X24707Y11578D01*
G01X24731Y11602D01*
G01X24744Y11614D01*
G01X24772Y11634D01*
G01X24787Y11644D01*
G01X24802Y11653D01*
G01X24817Y11661D01*
G01X24849Y11675D01*
G01X24865Y11681D01*
G01X24882Y11686D01*
G01X24898Y11690D01*
G01X24915Y11694D01*
G01X24933Y11697D01*
G01X24950Y11699D01*
G01X24967Y11700D01*
G01X25002Y11700D01*
G01X25019Y11699D01*
G01X25036Y11697D01*
G01X25054Y11694D01*
G01X25071Y11690D01*
G01X25087Y11686D01*
G01X25104Y11681D01*
G01X25120Y11675D01*
G01X25152Y11661D01*
G01X25168Y11653D01*
G01X25182Y11644D01*
G01X25197Y11634D01*
G01X25225Y11614D01*
G01X25238Y11602D01*
G01X25262Y11578D01*
G01X25274Y11565D01*
G01X25285Y11551D01*
G01X25295Y11537D01*
G01X25313Y11507D01*
G01X25321Y11492D01*
G01X25329Y11476D01*
G01X25341Y11444D01*
G01X25351Y11410D01*
G01X25357Y11376D01*
G01X25359Y11359D01*
G01X25360Y11342D01*
G01X25361Y11324D01*
G01X25359Y11290D01*
G01X25357Y11272D01*
G01X25351Y11238D01*
G01X25346Y11221D01*
G01X25341Y11205D01*
G01X25335Y11188D01*
G01X25329Y11172D01*
G01X25321Y11157D01*
G01X25313Y11141D01*
G01X25304Y11126D01*
G01X25295Y11112D01*
G01X25285Y11098D01*
G01X25274Y11084D01*
G01X25250Y11058D01*
G01X25238Y11046D01*
G01X25225Y11035D01*
G01X25211Y11024D01*
G01X25197Y11014D01*
G01X25182Y11005D01*
G01X25168Y10996D01*
G01X25136Y10980D01*
G01X25104Y10968D01*
G01X25087Y10963D01*
G01X25071Y10958D01*
G01X25054Y10955D01*
G01X25036Y10952D01*
G01X25019Y10950D01*
G01X24985Y10948D01*
G01X24965Y10949D01*
G01X24946Y10950D01*
G01X24908Y10956D01*
G01X24890Y10960D01*
G01X24871Y10966D01*
G01X24853Y10972D01*
G01X24846Y10974D01*
G01X24839Y10975D01*
G01X24827Y10973D01*
G01X24821Y10970D01*
G01X24816Y10967D01*
G01X24811Y10963D01*
G01X24500Y10651D01*
G01X24492Y10641D01*
G01X24490Y10635D01*
G01X24488Y10623D01*
G01X24488Y10106D01*
G01X24490Y10100D01*
G01X24494Y10090D01*
G01X24506Y10078D01*
G01X24511Y10075D01*
G01X24517Y10073D01*
G01X24522Y10072D01*
G01X24534Y10072D01*
G01X24546Y10076D01*
G01X24552Y10079D01*
G01X25623Y11150D01*
G01X25631Y11160D01*
G01X25633Y11166D01*
G01X25634Y11172D01*
G01X25635Y11179D01*
G01X25634Y11186D01*
G01X25632Y11193D01*
G01X25626Y11211D01*
G01X25621Y11229D01*
G01X25616Y11248D01*
G01X25613Y11267D01*
G01X25609Y11305D01*
G01X25609Y11342D01*
G01X25610Y11359D01*
G01X25612Y11376D01*
G01X25615Y11393D01*
G01X25623Y11427D01*
G01X25628Y11444D01*
G01X25634Y11460D01*
G01X25648Y11492D01*
G01X25656Y11507D01*
G01X25674Y11537D01*
G01X25684Y11551D01*
G01X25695Y11565D01*
G01X25707Y11578D01*
G01X25731Y11602D01*
G01X25744Y11614D01*
G01X25772Y11634D01*
G01X25787Y11644D01*
G01X25802Y11653D01*
G01X25817Y11661D01*
G01X25849Y11675D01*
G01X25865Y11681D01*
G01X25882Y11686D01*
G01X25898Y11690D01*
G01X25915Y11694D01*
G01X25933Y11697D01*
G01X25950Y11699D01*
G01X25967Y11700D01*
G01X26002Y11700D01*
G01X26019Y11699D01*
G01X26036Y11697D01*
G01X26054Y11694D01*
G01X26071Y11690D01*
G01X26087Y11686D01*
G01X26104Y11681D01*
G01X26120Y11675D01*
G01X26152Y11661D01*
G01X26168Y11653D01*
G01X26182Y11644D01*
G01X26197Y11634D01*
G01X26225Y11614D01*
G01X26238Y11602D01*
G01X26262Y11578D01*
G01X26274Y11565D01*
G01X26285Y11551D01*
G01X26295Y11537D01*
G01X26313Y11507D01*
G01X26321Y11492D01*
G01X26329Y11476D01*
G01X26341Y11444D01*
G01X26351Y11410D01*
G01X26357Y11376D01*
G01X26359Y11359D01*
G01X26360Y11342D01*
G01X26361Y11324D01*
G01X26359Y11290D01*
G01X26357Y11272D01*
G01X26351Y11238D01*
G01X26346Y11221D01*
G01X26341Y11205D01*
G01X26335Y11188D01*
G01X26329Y11172D01*
G01X26321Y11157D01*
G01X26313Y11141D01*
G01X26304Y11126D01*
G01X26295Y11112D01*
G01X26285Y11098D01*
G01X26274Y11084D01*
G01X26250Y11058D01*
G01X26238Y11046D01*
G01X26225Y11035D01*
G01X26211Y11024D01*
G01X26197Y11014D01*
G01X26182Y11005D01*
G01X26168Y10996D01*
G01X26136Y10980D01*
G01X26104Y10968D01*
G01X26087Y10963D01*
G01X26071Y10958D01*
G01X26054Y10955D01*
G01X26036Y10952D01*
G01X26019Y10950D01*
G01X25985Y10948D01*
G01X25965Y10949D01*
G01X25946Y10950D01*
G01X25908Y10956D01*
G01X25889Y10961D01*
G01X25871Y10966D01*
G01X25853Y10972D01*
G01X25846Y10974D01*
G01X25839Y10975D01*
G01X25833Y10974D01*
G01X25826Y10973D01*
G01X25821Y10970D01*
G01X25815Y10967D01*
G01X24629Y9781D01*
G01X24621Y9771D01*
G01X24619Y9765D01*
G01X24617Y9753D01*
G01X24617Y9235D01*
G01X24619Y9229D01*
G01X24623Y9219D01*
G01X24635Y9207D01*
G01X24640Y9204D01*
G01X24646Y9202D01*
G01X24651Y9201D01*
G01X24663Y9201D01*
G01X24675Y9205D01*
G01X24681Y9208D01*
G01X26623Y11150D01*
G01X26631Y11160D01*
G01X26633Y11166D01*
G01X26634Y11172D01*
G01X26635Y11179D01*
G01X26634Y11186D01*
G01X26632Y11193D01*
G01X26626Y11211D01*
G01X26621Y11229D01*
G01X26616Y11248D01*
G01X26613Y11267D01*
G01X26609Y11305D01*
G01X26609Y11342D01*
G01X26610Y11359D01*
G01X26612Y11376D01*
G01X26615Y11393D01*
G01X26623Y11427D01*
G01X26628Y11444D01*
G01X26634Y11460D01*
G01X26648Y11492D01*
G01X26656Y11507D01*
G01X26674Y11537D01*
G01X26684Y11551D01*
G01X26695Y11565D01*
G01X26707Y11578D01*
G01X26731Y11602D01*
G01X26744Y11614D01*
G01X26772Y11634D01*
G01X26787Y11644D01*
G01X26802Y11653D01*
G01X26817Y11661D01*
G01X26849Y11675D01*
G01X26865Y11681D01*
G01X26882Y11686D01*
G01X26898Y11690D01*
G01X26915Y11694D01*
G01X26933Y11697D01*
G01X26950Y11699D01*
G01X26967Y11700D01*
G01X27003Y11700D01*
G01X27021Y11699D01*
G01X27057Y11693D01*
G01X27075Y11689D01*
G01X27093Y11684D01*
G01X27110Y11679D01*
G01X27144Y11665D01*
G01X27161Y11657D01*
G01X27177Y11648D01*
G01X27192Y11638D01*
G01X27222Y11616D01*
G01X27236Y11604D01*
G01X27240Y11601D01*
G01X27245Y11598D01*
G01X27251Y11596D01*
G01X27256Y11594D01*
G01X27268Y11594D01*
G01X27280Y11598D01*
G01X27285Y11601D01*
G01X27290Y11605D01*
G01X27294Y11609D01*
G01X27297Y11614D01*
G01X27300Y11620D01*
G01X27302Y11632D01*
G01X27303Y11642D01*
G01X27305Y11653D01*
G01X27308Y11663D01*
G01X27316Y11683D01*
G01X27321Y11693D01*
G01X27327Y11702D01*
G01X27341Y11718D01*
G01X27848Y12225D01*
G01X27857Y12231D01*
G01X27865Y12237D01*
G01X27874Y12242D01*
G01X27884Y12247D01*
G01X27904Y12253D01*
G01X27914Y12255D01*
G01X27924Y12256D01*
G01X27935Y12257D01*
G01X32335Y12257D01*
G01X32355Y12255D01*
G01X32365Y12253D01*
G01X32385Y12247D01*
G01X32395Y12242D01*
G01X32404Y12237D01*
G01X32412Y12231D01*
G01X32421Y12225D01*
G01X32928Y11718D01*
G01X32942Y11702D01*
G01X32948Y11694D01*
G01X32953Y11684D01*
G01X32957Y11675D01*
G01X32961Y11665D01*
G01X32967Y11635D01*
G01X32967Y5314D01*
G01X32965Y5304D01*
G01X32963Y5293D01*
G01X32961Y5283D01*
G01X32957Y5274D01*
G01X32953Y5264D01*
G01X32948Y5255D01*
G01X32942Y5246D01*
G01X32935Y5238D01*
G01X32221Y4524D01*
G01X32212Y4517D01*
G01X32204Y4511D01*
G01X32195Y4506D01*
G01X32175Y4498D01*
G01X32165Y4495D01*
G01X32155Y4493D01*
G01X32145Y4492D01*
G01X31106Y4492D01*
G01X31094Y4490D01*
G01X31082Y4484D01*
G01X31078Y4480D01*
G01X29790Y3193D01*
G01X29786Y3188D01*
G01X29783Y3182D01*
G01X29780Y3177D01*
G01X29779Y3171D01*
G01X29778Y3164D01*
G01X29779Y3159D01*
G01X29780Y3153D01*
G01X29782Y3148D01*
G01X29788Y3138D01*
G01X29792Y3134D01*
G01X29802Y3128D01*
G01X29807Y3126D01*
G01X29813Y3125D01*
G01X29818Y3124D01*
G01X30235Y3124D01*
G01X30235Y3117D01*
G01X30236Y3112D01*
G01X30238Y3106D01*
G01X30241Y3101D01*
G01X30244Y3097D01*
G01X30248Y3093D01*
G01X30253Y3089D01*
G01X30258Y3086D01*
G01X30263Y3084D01*
G01X30269Y3083D01*
G01X30337Y3083D01*
G01X30337Y2764D01*
G01X30338Y2759D01*
G01X30339Y2753D01*
G01X30341Y2748D01*
G01X30347Y2738D01*
G01X30351Y2734D01*
G01X30361Y2728D01*
G01X30366Y2726D01*
G01X30372Y2725D01*
G01X30377Y2724D01*
G01X30692Y2724D01*
G01X30697Y2725D01*
G01X30703Y2726D01*
G01X30708Y2728D01*
G01X30718Y2734D01*
G01X30722Y2738D01*
G01X30728Y2748D01*
G01X30730Y2753D01*
G01X30731Y2759D01*
G01X30732Y2764D01*
G01X30732Y3083D01*
G01X30800Y3083D01*
G01X30806Y3084D01*
G01X30811Y3086D01*
G01X30816Y3089D01*
G01X30821Y3093D01*
G01X30825Y3097D01*
G01X30828Y3101D01*
G01X30831Y3106D01*
G01X30833Y3112D01*
G01X30834Y3117D01*
G01X30835Y3123D01*
G01X30835Y3124D01*
G01X31195Y3124D01*
G01X31200Y3125D01*
G01X31206Y3126D01*
G01X31211Y3128D01*
G01X31221Y3134D01*
G01X31225Y3138D01*
G01X31231Y3148D01*
G01X31233Y3153D01*
G01X31234Y3159D01*
G01X31235Y3164D01*
G01X31235Y4324D01*
G01X39095Y4324D01*
G01X39100Y4325D01*
G01X39106Y4326D01*
G01X39111Y4328D01*
G01X39121Y4334D01*
G01X39125Y4338D01*
G01X39131Y4348D01*
G01X39133Y4353D01*
G01X39134Y4359D01*
G01X39135Y4364D01*
G01X39135Y10484D01*
G01X39133Y10496D01*
G01X39131Y10501D01*
G01X39128Y10506D01*
G01X39125Y10510D01*
G01X39121Y10515D01*
G01X39111Y10521D01*
G01X39106Y10523D01*
G01X39100Y10524D01*
G01X38835Y10524D01*
G01X38835Y12284D01*
G01X38833Y12296D01*
G01X38831Y12301D01*
G01X38828Y12306D01*
G01X38825Y12310D01*
G01X38821Y12315D01*
G01X38811Y12321D01*
G01X38806Y12323D01*
G01X38800Y12324D01*
G01X35635Y12324D01*
G01X35635Y14284D01*
G01X35633Y14296D01*
G01X35631Y14301D01*
G01X35628Y14306D01*
G01X35625Y14310D01*
G01X35621Y14315D01*
G01X35611Y14321D01*
G01X35606Y14323D01*
G01X35600Y14324D01*
G37*

%LPC*%
G36*
G01X23706Y13225D02*
G01X16244Y13225D01*
G01X16235Y13224D01*
G01X16217Y13218D01*
G01X16209Y13215D01*
G01X16200Y13210D01*
G01X16193Y13205D01*
G01X16185Y13199D01*
G01X16173Y13185D01*
G01X16163Y13169D01*
G01X16159Y13161D01*
G01X16156Y13152D01*
G01X16154Y13143D01*
G01X16153Y13134D01*
G01X16153Y12502D01*
G01X16154Y12493D01*
G01X16156Y12484D01*
G01X16159Y12475D01*
G01X16163Y12466D01*
G01X16173Y12450D01*
G01X16179Y12443D01*
G01X16185Y12437D01*
G01X16193Y12431D01*
G01X16200Y12425D01*
G01X16209Y12421D01*
G01X16217Y12417D01*
G01X16226Y12414D01*
G01X16235Y12412D01*
G01X16244Y12411D01*
G01X16254Y12410D01*
G01X23697Y12410D01*
G01X23715Y12412D01*
G01X23724Y12414D01*
G01X23733Y12417D01*
G01X23742Y12421D01*
G01X23750Y12425D01*
G01X23757Y12431D01*
G01X23765Y12437D01*
G01X23771Y12443D01*
G01X23777Y12450D01*
G01X23787Y12466D01*
G01X23791Y12475D01*
G01X23794Y12484D01*
G01X23796Y12493D01*
G01X23798Y12511D01*
G01X23798Y13124D01*
G01X23797Y13134D01*
G01X23796Y13143D01*
G01X23794Y13152D01*
G01X23791Y13161D01*
G01X23787Y13169D01*
G01X23777Y13185D01*
G01X23765Y13199D01*
G01X23757Y13205D01*
G01X23750Y13210D01*
G01X23742Y13215D01*
G01X23715Y13224D01*
G01X23706Y13225D01*
G37*
G36*
G01X14111Y10640D02*
G01X14078Y10640D01*
G01X14062Y10639D01*
G01X14045Y10637D01*
G01X14029Y10634D01*
G01X13997Y10626D01*
G01X13981Y10621D01*
G01X13966Y10615D01*
G01X13936Y10601D01*
G01X13922Y10592D01*
G01X13908Y10584D01*
G01X13894Y10574D01*
G01X13881Y10564D01*
G01X13857Y10542D01*
G01X13846Y10530D01*
G01X13835Y10517D01*
G01X13815Y10491D01*
G01X13806Y10477D01*
G01X13798Y10463D01*
G01X13784Y10433D01*
G01X13778Y10417D01*
G01X13773Y10402D01*
G01X13765Y10370D01*
G01X13762Y10354D01*
G01X13760Y10337D01*
G01X13759Y10321D01*
G01X13759Y10288D01*
G01X13760Y10271D01*
G01X13762Y10255D01*
G01X13765Y10239D01*
G01X13773Y10207D01*
G01X13778Y10191D01*
G01X13784Y10176D01*
G01X13798Y10146D01*
G01X13806Y10132D01*
G01X13815Y10118D01*
G01X13824Y10105D01*
G01X13835Y10092D01*
G01X13841Y10080D01*
G01X13843Y10073D01*
G01X13844Y10066D01*
G01X13844Y8592D01*
G01X13843Y8586D01*
G01X13841Y8579D01*
G01X13835Y8567D01*
G01X13824Y8554D01*
G01X13815Y8541D01*
G01X13806Y8527D01*
G01X13798Y8512D01*
G01X13791Y8498D01*
G01X13784Y8483D01*
G01X13778Y8467D01*
G01X13773Y8452D01*
G01X13765Y8420D01*
G01X13762Y8404D01*
G01X13760Y8387D01*
G01X13759Y8371D01*
G01X13759Y8337D01*
G01X13760Y8319D01*
G01X13766Y8285D01*
G01X13770Y8268D01*
G01X13775Y8251D01*
G01X13781Y8235D01*
G01X13787Y8218D01*
G01X13795Y8203D01*
G01X13803Y8187D01*
G01X13812Y8172D01*
G01X13832Y8144D01*
G01X13836Y8138D01*
G01X13839Y8132D01*
G01X13841Y8126D01*
G01X13841Y8119D01*
G01X13826Y6485D01*
G01X13825Y6478D01*
G01X13823Y6471D01*
G01X13820Y6465D01*
G01X13817Y6460D01*
G01X13806Y6446D01*
G01X13796Y6433D01*
G01X13787Y6419D01*
G01X13779Y6404D01*
G01X13772Y6390D01*
G01X13765Y6374D01*
G01X13759Y6359D01*
G01X13753Y6343D01*
G01X13745Y6311D01*
G01X13742Y6294D01*
G01X13740Y6278D01*
G01X13739Y6261D01*
G01X13739Y6228D01*
G01X13740Y6211D01*
G01X13742Y6195D01*
G01X13745Y6179D01*
G01X13753Y6147D01*
G01X13758Y6131D01*
G01X13764Y6116D01*
G01X13778Y6086D01*
G01X13786Y6072D01*
G01X13795Y6058D01*
G01X13805Y6044D01*
G01X13815Y6031D01*
G01X13837Y6007D01*
G01X13849Y5995D01*
G01X13861Y5985D01*
G01X13874Y5974D01*
G01X13902Y5956D01*
G01X13916Y5948D01*
G01X13946Y5934D01*
G01X13961Y5928D01*
G01X13993Y5918D01*
G01X14025Y5912D01*
G01X14042Y5910D01*
G01X14058Y5909D01*
G01X14075Y5908D01*
G01X14107Y5910D01*
G01X14124Y5912D01*
G01X14156Y5918D01*
G01X14188Y5928D01*
G01X14203Y5934D01*
G01X14233Y5948D01*
G01X14247Y5956D01*
G01X14275Y5974D01*
G01X14288Y5985D01*
G01X14300Y5995D01*
G01X14312Y6007D01*
G01X14334Y6031D01*
G01X14344Y6044D01*
G01X14354Y6058D01*
G01X14363Y6072D01*
G01X14371Y6086D01*
G01X14385Y6116D01*
G01X14391Y6131D01*
G01X14396Y6147D01*
G01X14404Y6179D01*
G01X14407Y6195D01*
G01X14409Y6211D01*
G01X14410Y6228D01*
G01X14411Y6244D01*
G01X14410Y6262D01*
G01X14409Y6279D01*
G01X14406Y6297D01*
G01X14403Y6314D01*
G01X14399Y6331D01*
G01X14394Y6347D01*
G01X14389Y6364D01*
G01X14382Y6380D01*
G01X14374Y6396D01*
G01X14366Y6411D01*
G01X14357Y6426D01*
G01X14347Y6441D01*
G01X14337Y6455D01*
G01X14333Y6460D01*
G01X14330Y6466D01*
G01X14328Y6473D01*
G01X14328Y6480D01*
G01X14343Y8114D01*
G01X14344Y8121D01*
G01X14346Y8127D01*
G01X14349Y8133D01*
G01X14353Y8139D01*
G01X14363Y8152D01*
G01X14373Y8166D01*
G01X14382Y8180D01*
G01X14390Y8194D01*
G01X14398Y8209D01*
G01X14404Y8224D01*
G01X14416Y8256D01*
G01X14424Y8288D01*
G01X14427Y8304D01*
G01X14429Y8321D01*
G01X14430Y8338D01*
G01X14431Y8354D01*
G01X14430Y8371D01*
G01X14429Y8387D01*
G01X14427Y8403D01*
G01X14424Y8420D01*
G01X14421Y8436D01*
G01X14416Y8452D01*
G01X14411Y8467D01*
G01X14405Y8483D01*
G01X14398Y8498D01*
G01X14391Y8512D01*
G01X14383Y8527D01*
G01X14374Y8541D01*
G01X14365Y8554D01*
G01X14355Y8567D01*
G01X14351Y8573D01*
G01X14348Y8579D01*
G01X14346Y8586D01*
G01X14346Y10073D01*
G01X14348Y10080D01*
G01X14351Y10086D01*
G01X14355Y10092D01*
G01X14365Y10105D01*
G01X14374Y10118D01*
G01X14383Y10132D01*
G01X14391Y10146D01*
G01X14405Y10176D01*
G01X14411Y10191D01*
G01X14421Y10223D01*
G01X14427Y10255D01*
G01X14429Y10271D01*
G01X14430Y10288D01*
G01X14431Y10304D01*
G01X14430Y10321D01*
G01X14429Y10337D01*
G01X14427Y10354D01*
G01X14424Y10370D01*
G01X14416Y10402D01*
G01X14411Y10417D01*
G01X14405Y10433D01*
G01X14391Y10463D01*
G01X14383Y10477D01*
G01X14374Y10491D01*
G01X14354Y10517D01*
G01X14343Y10530D01*
G01X14332Y10542D01*
G01X14308Y10564D01*
G01X14295Y10574D01*
G01X14281Y10584D01*
G01X14267Y10592D01*
G01X14253Y10601D01*
G01X14223Y10615D01*
G01X14208Y10621D01*
G01X14192Y10626D01*
G01X14160Y10634D01*
G01X14144Y10637D01*
G01X14127Y10639D01*
G01X14111Y10640D01*
G37*
G36*
G01X10303Y9040D02*
G01X10266Y9040D01*
G01X10247Y9039D01*
G01X10229Y9037D01*
G01X10210Y9034D01*
G01X10192Y9030D01*
G01X10156Y9020D01*
G01X10138Y9014D01*
G01X10121Y9007D01*
G01X10087Y8991D01*
G01X10055Y8971D01*
G01X10040Y8961D01*
G01X10025Y8950D01*
G01X10011Y8938D01*
G01X9997Y8925D01*
G01X9984Y8912D01*
G01X9971Y8898D01*
G01X9959Y8884D01*
G01X9948Y8869D01*
G01X9937Y8853D01*
G01X9927Y8838D01*
G01X9918Y8821D01*
G01X9910Y8805D01*
G01X9902Y8788D01*
G01X9895Y8770D01*
G01X9889Y8753D01*
G01X9879Y8717D01*
G01X9875Y8699D01*
G01X9872Y8680D01*
G01X9870Y8662D01*
G01X9869Y8643D01*
G01X9869Y8606D01*
G01X9870Y8587D01*
G01X9872Y8568D01*
G01X9875Y8550D01*
G01X9879Y8532D01*
G01X9889Y8496D01*
G01X9895Y8478D01*
G01X9902Y8461D01*
G01X9918Y8427D01*
G01X9927Y8411D01*
G01X9937Y8395D01*
G01X9959Y8365D01*
G01X9971Y8351D01*
G01X9984Y8337D01*
G01X9997Y8324D01*
G01X10011Y8311D01*
G01X10025Y8299D01*
G01X10055Y8277D01*
G01X10071Y8267D01*
G01X10087Y8258D01*
G01X10104Y8249D01*
G01X10138Y8235D01*
G01X10174Y8223D01*
G01X10210Y8215D01*
G01X10229Y8212D01*
G01X10247Y8210D01*
G01X10285Y8208D01*
G01X10303Y8209D01*
G01X10322Y8210D01*
G01X10340Y8212D01*
G01X10359Y8215D01*
G01X10395Y8223D01*
G01X10431Y8235D01*
G01X10465Y8249D01*
G01X10482Y8258D01*
G01X10498Y8267D01*
G01X10514Y8277D01*
G01X10544Y8299D01*
G01X10558Y8311D01*
G01X10572Y8324D01*
G01X10585Y8337D01*
G01X10598Y8351D01*
G01X10610Y8365D01*
G01X10632Y8395D01*
G01X10642Y8411D01*
G01X10651Y8427D01*
G01X10667Y8461D01*
G01X10674Y8478D01*
G01X10686Y8514D01*
G01X10694Y8550D01*
G01X10697Y8568D01*
G01X10699Y8587D01*
G01X10700Y8606D01*
G01X10701Y8624D01*
G01X10699Y8662D01*
G01X10697Y8680D01*
G01X10694Y8699D01*
G01X10686Y8735D01*
G01X10680Y8753D01*
G01X10674Y8770D01*
G01X10667Y8788D01*
G01X10659Y8805D01*
G01X10651Y8821D01*
G01X10642Y8838D01*
G01X10632Y8853D01*
G01X10621Y8869D01*
G01X10610Y8884D01*
G01X10598Y8898D01*
G01X10585Y8912D01*
G01X10572Y8925D01*
G01X10558Y8938D01*
G01X10544Y8950D01*
G01X10529Y8961D01*
G01X10514Y8971D01*
G01X10482Y8991D01*
G01X10448Y9007D01*
G01X10431Y9014D01*
G01X10413Y9020D01*
G01X10377Y9030D01*
G01X10359Y9034D01*
G01X10340Y9037D01*
G01X10322Y9039D01*
G01X10303Y9040D01*
G37*
G36*
G01X10658Y9442D02*
G01X10467Y9442D01*
G01X10467Y9250D01*
G01X10499Y9268D01*
G01X10515Y9278D01*
G01X10530Y9288D01*
G01X10544Y9300D01*
G01X10559Y9311D01*
G01X10598Y9350D01*
G01X10609Y9364D01*
G01X10631Y9394D01*
G01X10641Y9410D01*
G01X10650Y9425D01*
G01X10658Y9442D01*
G37*
G36*
G01X10483Y9990D02*
G01X10467Y9998D01*
G01X10467Y9807D01*
G01X10658Y9807D01*
G01X10650Y9823D01*
G01X10641Y9839D01*
G01X10631Y9855D01*
G01X10620Y9870D01*
G01X10598Y9898D01*
G01X10585Y9912D01*
G01X10572Y9925D01*
G01X10559Y9937D01*
G01X10544Y9949D01*
G01X10530Y9960D01*
G01X10515Y9971D01*
G01X10499Y9981D01*
G01X10483Y9990D01*
G37*
G36*
G01X10102Y9442D02*
G01X9911Y9442D01*
G01X9919Y9425D01*
G01X9928Y9410D01*
G01X9938Y9394D01*
G01X9960Y9364D01*
G01X9972Y9350D01*
G01X9984Y9337D01*
G01X9997Y9324D01*
G01X10011Y9311D01*
G01X10025Y9300D01*
G01X10039Y9288D01*
G01X10054Y9278D01*
G01X10070Y9268D01*
G01X10102Y9250D01*
G01X10102Y9442D01*
G37*
G36*
G01X10102Y9807D02*
G01X10102Y9998D01*
G01X10086Y9990D01*
G01X10070Y9981D01*
G01X10054Y9971D01*
G01X10039Y9960D01*
G01X10025Y9949D01*
G01X9997Y9925D01*
G01X9984Y9912D01*
G01X9960Y9884D01*
G01X9949Y9870D01*
G01X9938Y9855D01*
G01X9928Y9839D01*
G01X9919Y9823D01*
G01X9911Y9807D01*
G01X10102Y9807D01*
G37*
G36*
G01X12952Y8497D02*
G01X12952Y8659D01*
G01X12937Y8651D01*
G01X12923Y8643D01*
G01X12908Y8634D01*
G01X12895Y8625D01*
G01X12869Y8603D01*
G01X12857Y8592D01*
G01X12845Y8580D01*
G01X12835Y8567D01*
G01X12824Y8554D01*
G01X12806Y8526D01*
G01X12798Y8512D01*
G01X12790Y8497D01*
G01X12952Y8497D01*
G37*
G36*
G01X12952Y10447D02*
G01X12952Y10609D01*
G01X12937Y10601D01*
G01X12923Y10593D01*
G01X12908Y10584D01*
G01X12895Y10575D01*
G01X12869Y10553D01*
G01X12857Y10542D01*
G01X12845Y10530D01*
G01X12835Y10517D01*
G01X12824Y10504D01*
G01X12806Y10476D01*
G01X12798Y10462D01*
G01X12790Y10447D01*
G01X12952Y10447D01*
G37*
G36*
G01X12932Y6102D02*
G01X12770Y6102D01*
G01X12786Y6072D01*
G01X12795Y6058D01*
G01X12804Y6045D01*
G01X12815Y6031D01*
G01X12825Y6019D01*
G01X12849Y5995D01*
G01X12862Y5984D01*
G01X12875Y5974D01*
G01X12888Y5965D01*
G01X12903Y5956D01*
G01X12917Y5947D01*
G01X12932Y5940D01*
G01X12932Y6102D01*
G37*
G36*
G01X13379Y6102D02*
G01X13217Y6102D01*
G01X13217Y5940D01*
G01X13232Y5947D01*
G01X13246Y5956D01*
G01X13261Y5965D01*
G01X13274Y5974D01*
G01X13287Y5984D01*
G01X13300Y5995D01*
G01X13324Y6019D01*
G01X13335Y6031D01*
G01X13345Y6045D01*
G01X13354Y6058D01*
G01X13363Y6072D01*
G01X13379Y6102D01*
G37*
G36*
G01X13252Y10601D02*
G01X13237Y10609D01*
G01X13237Y10447D01*
G01X13399Y10447D01*
G01X13391Y10462D01*
G01X13383Y10476D01*
G01X13365Y10504D01*
G01X13355Y10517D01*
G01X13344Y10530D01*
G01X13332Y10542D01*
G01X13320Y10553D01*
G01X13294Y10575D01*
G01X13281Y10584D01*
G01X13266Y10593D01*
G01X13252Y10601D01*
G37*
G36*
G01X13252Y8651D02*
G01X13237Y8659D01*
G01X13237Y8497D01*
G01X13399Y8497D01*
G01X13391Y8512D01*
G01X13383Y8526D01*
G01X13365Y8554D01*
G01X13355Y8567D01*
G01X13344Y8580D01*
G01X13332Y8592D01*
G01X13320Y8603D01*
G01X13294Y8625D01*
G01X13281Y8634D01*
G01X13266Y8643D01*
G01X13252Y8651D01*
G37*
G36*
G01X13399Y8212D02*
G01X13237Y8212D01*
G01X13237Y8050D01*
G01X13252Y8057D01*
G01X13266Y8066D01*
G01X13281Y8075D01*
G01X13294Y8084D01*
G01X13307Y8094D01*
G01X13320Y8105D01*
G01X13344Y8129D01*
G01X13355Y8141D01*
G01X13365Y8155D01*
G01X13374Y8168D01*
G01X13383Y8182D01*
G01X13399Y8212D01*
G37*
G36*
G01X12952Y10162D02*
G01X12790Y10162D01*
G01X12806Y10132D01*
G01X12815Y10118D01*
G01X12824Y10105D01*
G01X12835Y10091D01*
G01X12845Y10079D01*
G01X12869Y10055D01*
G01X12882Y10044D01*
G01X12895Y10034D01*
G01X12908Y10025D01*
G01X12923Y10016D01*
G01X12937Y10007D01*
G01X12952Y10000D01*
G01X12952Y10162D01*
G37*
G36*
G01X12952Y8212D02*
G01X12790Y8212D01*
G01X12806Y8182D01*
G01X12815Y8168D01*
G01X12824Y8155D01*
G01X12835Y8141D01*
G01X12845Y8129D01*
G01X12869Y8105D01*
G01X12882Y8094D01*
G01X12895Y8084D01*
G01X12908Y8075D01*
G01X12923Y8066D01*
G01X12937Y8057D01*
G01X12952Y8050D01*
G01X12952Y8212D01*
G37*
G36*
G01X13399Y10162D02*
G01X13237Y10162D01*
G01X13237Y10000D01*
G01X13252Y10007D01*
G01X13266Y10016D01*
G01X13281Y10025D01*
G01X13294Y10034D01*
G01X13307Y10044D01*
G01X13320Y10055D01*
G01X13344Y10079D01*
G01X13355Y10091D01*
G01X13365Y10105D01*
G01X13374Y10118D01*
G01X13383Y10132D01*
G01X13399Y10162D01*
G37*
G36*
G01X13232Y6541D02*
G01X13217Y6549D01*
G01X13217Y6387D01*
G01X13379Y6387D01*
G01X13371Y6402D01*
G01X13363Y6416D01*
G01X13345Y6444D01*
G01X13335Y6457D01*
G01X13324Y6470D01*
G01X13312Y6482D01*
G01X13300Y6493D01*
G01X13274Y6515D01*
G01X13261Y6524D01*
G01X13246Y6533D01*
G01X13232Y6541D01*
G37*
G36*
G01X12932Y6387D02*
G01X12932Y6549D01*
G01X12917Y6541D01*
G01X12903Y6533D01*
G01X12888Y6524D01*
G01X12875Y6515D01*
G01X12849Y6493D01*
G01X12837Y6482D01*
G01X12825Y6470D01*
G01X12815Y6457D01*
G01X12804Y6444D01*
G01X12786Y6416D01*
G01X12778Y6402D01*
G01X12770Y6387D01*
G01X12932Y6387D01*
G37*

%LPD*%
G54D11*
G01X14095Y10304D02*
G01X14095Y8354D01*
G01X14095Y8354D01*
G54D12*
G01X12818Y1574D02*
G01X12818Y3224D01*
G01X12835Y3224D01*
G01X15735Y6124D01*
G01X15735Y10924D01*
G01X16835Y12024D01*
G01X23135Y12024D01*
G01X23535Y11624D01*
G01X23535Y11224D01*
G01X22135Y9824D01*
G01X22135Y5474D01*
G01X21985Y5324D01*
G01X13075Y6244D02*
G01X13095Y8354D01*
G01X13095Y10304D02*
G01X13095Y8354D01*
G01X13095Y8354D01*
G01X28567Y3077D02*
G01X28221Y3077D01*
G01X27640Y3659D01*
G01X27640Y4145D01*
G01X26440Y5345D01*
G01X26440Y5402D01*
G01X25804Y6038D01*
G01X25730Y6038D01*
G01X28567Y1574D02*
G01X28567Y3077D01*
G01X8882Y1574D02*
G01X8882Y3077D01*
G54D11*
G01X31035Y3324D02*
G01X31035Y2074D01*
G01X30535Y1574D01*
G01X7285Y9624D02*
G01X6635Y9024D01*
G01X6635Y6108D01*
G01X8855Y4494D01*
G01X8882Y3077D01*
G01X14075Y6244D02*
G01X14095Y8354D01*
G54D12*
G01X29985Y11324D02*
G01X29611Y11698D01*
G01X28834Y11698D01*
G01X28435Y11299D01*
G01X28435Y11040D01*
G01X25515Y8120D01*
G01X25515Y5948D01*
G01X25614Y5849D01*
G01X25614Y5171D01*
G01X25963Y4822D01*
G01X26096Y4822D01*
G01X27239Y3678D01*
G01X27239Y3444D01*
G01X31615Y11324D02*
G01X31113Y11825D01*
G01X27920Y11825D01*
G01X27585Y11490D01*
G01X27585Y11103D01*
G01X25260Y8779D01*
G01X25260Y5843D01*
G01X25356Y5747D01*
G01X25356Y3369D01*
G01X31985Y11324D02*
G01X31615Y11324D01*
G01X30985Y11324D02*
G01X28526Y8865D01*
G01X28526Y4166D01*
G01X29551Y1574D02*
G01X29551Y3140D01*
G01X31035Y4624D01*
G01X32135Y4624D01*
G01X32835Y5324D01*
G01X32835Y11624D01*
G01X32335Y12124D01*
G01X27935Y12124D01*
G01X27435Y11624D01*
G01X27435Y11124D01*
G01X24985Y8774D01*
G01X24985Y5324D01*
G01X29551Y1574D02*
G01X29551Y71D01*
G01X27582Y3077D02*
G01X27512Y3147D01*
G01X27512Y3797D01*
G01X25985Y5324D01*
G01X27582Y1574D02*
G01X27582Y3077D01*
G01X26598Y1574D02*
G01X26598Y3077D01*
G01X26006Y4606D02*
G01X26006Y3669D01*
G01X26598Y3077D01*
G01X25614Y3077D02*
G01X25614Y4991D01*
G01X25487Y5118D01*
G01X25487Y5797D01*
G01X25388Y5896D01*
G01X25388Y8726D01*
G01X27985Y11324D01*
G01X25614Y1574D02*
G01X25614Y3077D01*
G01X24630Y1574D02*
G01X24630Y3077D01*
G01X26985Y11324D02*
G01X24612Y8951D01*
G01X24612Y3094D01*
G01X24630Y3077D01*
G01X25985Y11324D02*
G01X24485Y9824D01*
G01X24485Y4929D01*
G01X23645Y4089D01*
G01X23645Y1574D01*
G01X24985Y11324D02*
G01X24356Y10694D01*
G01X24356Y4979D01*
G01X23287Y3910D01*
G01X23287Y3485D01*
G01X22878Y3077D01*
G01X22661Y3077D01*
G01X22661Y1574D02*
G01X22661Y3077D01*
G01X23985Y11324D02*
G01X22487Y9826D01*
G01X22487Y4605D01*
G01X21677Y3795D01*
G01X21677Y1574D01*
G01X22985Y11324D02*
G01X21615Y9953D01*
G01X21615Y5331D01*
G01X20693Y4409D01*
G01X20693Y1574D01*
G01X21985Y11324D02*
G01X20615Y9953D01*
G01X20615Y5315D01*
G01X19708Y4409D01*
G01X19708Y1574D01*
G01X20985Y11324D02*
G01X19615Y9953D01*
G01X19615Y5300D01*
G01X18724Y4409D01*
G01X18724Y1574D01*
G01X19985Y11324D02*
G01X17614Y8952D01*
G01X17614Y4739D01*
G01X16756Y3881D01*
G01X16756Y1574D01*
G01X15771Y3077D02*
G01X17486Y4792D01*
G01X17486Y9825D01*
G01X18985Y11324D01*
G01X15771Y1574D02*
G01X15771Y3077D01*
G01X14787Y3077D02*
G01X15262Y3077D01*
G01X17359Y5174D01*
G01X17359Y10698D01*
G01X17985Y11324D01*
G01X14787Y1574D02*
G01X14787Y3077D01*
G01X13803Y1574D02*
G01X13803Y3077D01*
G01X16985Y5324D02*
G01X16050Y5324D01*
G01X13803Y3077D01*
G01X12819Y1574D02*
G01X12819Y71D01*
G01X10285Y7624D02*
G01X11834Y6075D01*
G01X11834Y1574D01*
G01X10285Y6624D02*
G01X10850Y6059D01*
G01X10850Y1574D01*
G01X28985Y11324D02*
G01X28386Y10724D01*
G01X28386Y4330D01*
G01X27918Y3863D01*
G01X27918Y3560D01*
G01X28084Y3394D01*
G01X29009Y3394D01*
G01X29236Y3166D01*
G01X30985Y5324D02*
G01X29351Y3690D01*
G01X28136Y3690D01*

%LPD*%
G36*
G01X16741Y13110D02*
G01X16260Y13110D01*
G01X16254Y12954D01*
G01X16297Y12954D01*
G01X16321Y13072D01*
G01X16459Y13072D01*
G01X16460Y13014D01*
G01X16460Y12927D01*
G01X16461Y12897D01*
G01X16461Y12738D01*
G01X16460Y12709D01*
G01X16460Y12622D01*
G01X16459Y12593D01*
G01X16459Y12564D01*
G01X16369Y12554D01*
G01X16369Y12524D01*
G01X16633Y12524D01*
G01X16633Y12554D01*
G01X16542Y12564D01*
G01X16541Y12593D01*
G01X16541Y13043D01*
G01X16542Y13072D01*
G01X16680Y13072D01*
G01X16704Y12954D01*
G01X16748Y12954D01*
G01X16741Y13110D01*
G37*

%LPD*%
G36*
G01X19027Y13110D02*
G01X18592Y13110D01*
G01X18587Y12956D01*
G01X18630Y12956D01*
G01X18653Y13072D01*
G01X18862Y13072D01*
G01X18863Y13015D01*
G01X18863Y12928D01*
G01X18864Y12899D01*
G01X18864Y12840D01*
G01X18725Y12840D01*
G01X18714Y12926D01*
G01X18677Y12926D01*
G01X18677Y12714D01*
G01X18714Y12714D01*
G01X18725Y12805D01*
G01X18864Y12805D01*
G01X18864Y12742D01*
G01X18863Y12711D01*
G01X18863Y12622D01*
G01X18862Y12564D01*
G01X18779Y12554D01*
G01X18779Y12524D01*
G01X19027Y12524D01*
G01X19027Y12554D01*
G01X18945Y12563D01*
G01X18944Y12592D01*
G01X18944Y13042D01*
G01X18945Y13071D01*
G01X19027Y13080D01*
G01X19027Y13110D01*
G37*

%LPD*%
G36*
G01X19775Y13110D02*
G01X19294Y13110D01*
G01X19289Y12954D01*
G01X19331Y12954D01*
G01X19356Y13072D01*
G01X19493Y13072D01*
G01X19494Y13014D01*
G01X19494Y12927D01*
G01X19495Y12897D01*
G01X19495Y12738D01*
G01X19494Y12709D01*
G01X19494Y12622D01*
G01X19493Y12593D01*
G01X19493Y12564D01*
G01X19403Y12554D01*
G01X19403Y12524D01*
G01X19667Y12524D01*
G01X19667Y12554D01*
G01X19577Y12564D01*
G01X19575Y12622D01*
G01X19575Y13014D01*
G01X19577Y13072D01*
G01X19714Y13072D01*
G01X19738Y12954D01*
G01X19782Y12954D01*
G01X19775Y13110D01*
G37*

%LPD*%
G36*
G01X20654Y13114D02*
G01X20603Y13114D01*
G01X20414Y12562D01*
G01X20345Y12554D01*
G01X20345Y12524D01*
G01X20584Y12524D01*
G01X20584Y12554D01*
G01X20497Y12565D01*
G01X20549Y12718D01*
G01X20752Y12718D01*
G01X20802Y12566D01*
G01X20717Y12554D01*
G01X20717Y12524D01*
G01X20912Y12524D01*
G01X20912Y12554D01*
G01X20841Y12566D01*
G01X20654Y13114D01*
G37*

%LPC*%
G36*
G01X20741Y12753D02*
G01X20651Y13025D01*
G01X20560Y12753D01*
G01X20741Y12753D01*
G37*

%LPD*%
G36*
G01X22616Y13110D02*
G01X22181Y13110D01*
G01X22177Y12956D01*
G01X22220Y12956D01*
G01X22243Y13072D01*
G01X22451Y13072D01*
G01X22452Y13015D01*
G01X22452Y12928D01*
G01X22453Y12899D01*
G01X22453Y12840D01*
G01X22321Y12840D01*
G01X22308Y12926D01*
G01X22272Y12926D01*
G01X22272Y12720D01*
G01X22308Y12720D01*
G01X22320Y12805D01*
G01X22453Y12805D01*
G01X22453Y12742D01*
G01X22452Y12711D01*
G01X22452Y12621D01*
G01X22451Y12592D01*
G01X22451Y12562D01*
G01X22226Y12562D01*
G01X22203Y12680D01*
G01X22160Y12680D01*
G01X22165Y12524D01*
G01X22616Y12524D01*
G01X22616Y12554D01*
G01X22534Y12563D01*
G01X22533Y12592D01*
G01X22533Y13042D01*
G01X22534Y13071D01*
G01X22616Y13080D01*
G01X22616Y13110D01*
G37*

%LPD*%
G36*
G01X17007Y13110D02*
G01X16800Y13110D01*
G01X16800Y13080D01*
G01X16873Y13070D01*
G01X16874Y12518D01*
G01X16905Y12518D01*
G01X17263Y13010D01*
G01X17261Y12566D01*
G01X17168Y12554D01*
G01X17168Y12524D01*
G01X17375Y12524D01*
G01X17375Y12554D01*
G01X17301Y12565D01*
G01X17300Y13061D01*
G01X17309Y13072D01*
G01X17371Y13080D01*
G01X17371Y13110D01*
G01X17236Y13110D01*
G01X16912Y12662D01*
G01X16913Y13069D01*
G01X17007Y13080D01*
G01X17007Y13110D01*
G37*

%LPD*%
G36*
G01X22889Y13110D02*
G01X22682Y13110D01*
G01X22682Y13080D01*
G01X22756Y13070D01*
G01X22757Y12518D01*
G01X22788Y12518D01*
G01X23145Y13010D01*
G01X23144Y12566D01*
G01X23050Y12554D01*
G01X23050Y12524D01*
G01X23257Y12524D01*
G01X23257Y12554D01*
G01X23184Y12565D01*
G01X23182Y13061D01*
G01X23191Y13072D01*
G01X23253Y13080D01*
G01X23253Y13110D01*
G01X23118Y13110D01*
G01X22794Y12662D01*
G01X22796Y13069D01*
G01X22889Y13080D01*
G01X22889Y13110D01*
G37*

%LPD*%
G36*
G01X18528Y13110D02*
G01X18282Y13110D01*
G01X18250Y13109D01*
G01X18220Y13106D01*
G01X18193Y13100D01*
G01X18168Y13092D01*
G01X18146Y13082D01*
G01X18126Y13070D01*
G01X18110Y13056D01*
G01X18096Y13040D01*
G01X18085Y13022D01*
G01X18077Y13002D01*
G01X18072Y12981D01*
G01X18071Y12957D01*
G01X18072Y12940D01*
G01X18075Y12924D01*
G01X18080Y12907D01*
G01X18087Y12892D01*
G01X18097Y12878D01*
G01X18108Y12864D01*
G01X18122Y12851D01*
G01X18137Y12840D01*
G01X18155Y12830D01*
G01X18175Y12821D01*
G01X18197Y12815D01*
G01X18221Y12809D01*
G01X18201Y12804D01*
G01X18184Y12797D01*
G01X18169Y12787D01*
G01X18155Y12775D01*
G01X18144Y12760D01*
G01X18134Y12743D01*
G01X18125Y12722D01*
G01X18117Y12698D01*
G01X18076Y12561D01*
G01X18008Y12554D01*
G01X18008Y12524D01*
G01X18021Y12520D01*
G01X18037Y12517D01*
G01X18054Y12516D01*
G01X18074Y12515D01*
G01X18109Y12518D01*
G01X18135Y12528D01*
G01X18152Y12545D01*
G01X18163Y12571D01*
G01X18199Y12710D01*
G01X18206Y12735D01*
G01X18215Y12755D01*
G01X18225Y12770D01*
G01X18237Y12781D01*
G01X18253Y12790D01*
G01X18271Y12795D01*
G01X18292Y12798D01*
G01X18365Y12798D01*
G01X18365Y12738D01*
G01X18364Y12708D01*
G01X18364Y12621D01*
G01X18363Y12592D01*
G01X18363Y12564D01*
G01X18281Y12554D01*
G01X18281Y12524D01*
G01X18528Y12524D01*
G01X18528Y12554D01*
G01X18446Y12563D01*
G01X18445Y12592D01*
G01X18445Y13042D01*
G01X18446Y13071D01*
G01X18528Y13080D01*
G01X18528Y13110D01*
G37*

%LPC*%
G36*
G01X18363Y13076D02*
G01X18287Y13076D01*
G01X18254Y13074D01*
G01X18227Y13069D01*
G01X18204Y13059D01*
G01X18185Y13046D01*
G01X18171Y13028D01*
G01X18161Y13008D01*
G01X18155Y12985D01*
G01X18153Y12958D01*
G01X18155Y12932D01*
G01X18161Y12908D01*
G01X18172Y12886D01*
G01X18188Y12867D01*
G01X18207Y12852D01*
G01X18231Y12841D01*
G01X18260Y12834D01*
G01X18293Y12831D01*
G01X18365Y12831D01*
G01X18365Y12897D01*
G01X18364Y12928D01*
G01X18364Y13018D01*
G01X18363Y13076D01*
G37*

%LPD*%
G36*
G01X20305Y13110D02*
G01X20060Y13110D01*
G01X20028Y13109D01*
G01X19998Y13106D01*
G01X19971Y13100D01*
G01X19946Y13092D01*
G01X19924Y13082D01*
G01X19904Y13070D01*
G01X19888Y13056D01*
G01X19874Y13040D01*
G01X19863Y13022D01*
G01X19855Y13002D01*
G01X19850Y12981D01*
G01X19849Y12957D01*
G01X19850Y12940D01*
G01X19853Y12924D01*
G01X19858Y12907D01*
G01X19865Y12892D01*
G01X19875Y12878D01*
G01X19886Y12864D01*
G01X19900Y12851D01*
G01X19915Y12840D01*
G01X19933Y12830D01*
G01X19953Y12821D01*
G01X19975Y12815D01*
G01X19999Y12809D01*
G01X19979Y12804D01*
G01X19962Y12797D01*
G01X19946Y12787D01*
G01X19933Y12775D01*
G01X19921Y12760D01*
G01X19911Y12743D01*
G01X19902Y12722D01*
G01X19894Y12698D01*
G01X19853Y12561D01*
G01X19785Y12554D01*
G01X19785Y12524D01*
G01X19798Y12520D01*
G01X19814Y12517D01*
G01X19832Y12516D01*
G01X19852Y12515D01*
G01X19887Y12518D01*
G01X19913Y12528D01*
G01X19930Y12545D01*
G01X19941Y12571D01*
G01X19977Y12710D01*
G01X19984Y12735D01*
G01X19992Y12755D01*
G01X20002Y12770D01*
G01X20015Y12781D01*
G01X20030Y12790D01*
G01X20049Y12795D01*
G01X20070Y12798D01*
G01X20142Y12798D01*
G01X20142Y12708D01*
G01X20141Y12679D01*
G01X20141Y12564D01*
G01X20059Y12554D01*
G01X20059Y12524D01*
G01X20305Y12524D01*
G01X20305Y12554D01*
G01X20224Y12563D01*
G01X20222Y12621D01*
G01X20222Y13013D01*
G01X20224Y13071D01*
G01X20305Y13080D01*
G01X20305Y13110D01*
G37*

%LPC*%
G36*
G01X20141Y13076D02*
G01X20065Y13076D01*
G01X20032Y13074D01*
G01X20005Y13069D01*
G01X19982Y13059D01*
G01X19963Y13046D01*
G01X19949Y13028D01*
G01X19939Y13008D01*
G01X19933Y12985D01*
G01X19931Y12958D01*
G01X19933Y12932D01*
G01X19939Y12908D01*
G01X19950Y12886D01*
G01X19965Y12867D01*
G01X19985Y12852D01*
G01X20009Y12841D01*
G01X20038Y12834D01*
G01X20071Y12831D01*
G01X20142Y12831D01*
G01X20142Y12928D01*
G01X20141Y12959D01*
G01X20141Y13076D01*
G37*

%LPD*%
G36*
G01X17721Y13124D02*
G01X17680Y13124D01*
G01X17660Y13121D01*
G01X17640Y13117D01*
G01X17621Y13111D01*
G01X17602Y13104D01*
G01X17583Y13096D01*
G01X17565Y13085D01*
G01X17548Y13073D01*
G01X17532Y13060D01*
G01X17517Y13045D01*
G01X17502Y13029D01*
G01X17489Y13011D01*
G01X17477Y12992D01*
G01X17466Y12971D01*
G01X17457Y12949D01*
G01X17449Y12926D01*
G01X17443Y12901D01*
G01X17438Y12875D01*
G01X17436Y12847D01*
G01X17435Y12818D01*
G01X17436Y12790D01*
G01X17438Y12763D01*
G01X17443Y12737D01*
G01X17449Y12712D01*
G01X17457Y12689D01*
G01X17466Y12667D01*
G01X17477Y12646D01*
G01X17489Y12627D01*
G01X17502Y12609D01*
G01X17516Y12592D01*
G01X17532Y12577D01*
G01X17548Y12564D01*
G01X17565Y12552D01*
G01X17583Y12541D01*
G01X17601Y12532D01*
G01X17620Y12525D01*
G01X17640Y12519D01*
G01X17660Y12515D01*
G01X17680Y12512D01*
G01X17701Y12511D01*
G01X17721Y12512D01*
G01X17742Y12515D01*
G01X17762Y12519D01*
G01X17782Y12524D01*
G01X17801Y12531D01*
G01X17820Y12540D01*
G01X17838Y12550D01*
G01X17855Y12562D01*
G01X17871Y12575D01*
G01X17887Y12590D01*
G01X17901Y12606D01*
G01X17914Y12624D01*
G01X17926Y12643D01*
G01X17937Y12664D01*
G01X17946Y12686D01*
G01X17954Y12709D01*
G01X17960Y12735D01*
G01X17965Y12761D01*
G01X17968Y12789D01*
G01X17969Y12818D01*
G01X17968Y12847D01*
G01X17965Y12874D01*
G01X17960Y12899D01*
G01X17954Y12924D01*
G01X17946Y12947D01*
G01X17937Y12969D01*
G01X17926Y12990D01*
G01X17914Y13009D01*
G01X17901Y13027D01*
G01X17886Y13043D01*
G01X17871Y13058D01*
G01X17855Y13072D01*
G01X17837Y13084D01*
G01X17819Y13095D01*
G01X17801Y13103D01*
G01X17781Y13111D01*
G01X17762Y13117D01*
G01X17742Y13121D01*
G01X17721Y13124D01*
G37*

%LPC*%
G36*
G01X17723Y13085D02*
G01X17701Y13086D01*
G01X17679Y13085D01*
G01X17658Y13080D01*
G01X17640Y13073D01*
G01X17622Y13064D01*
G01X17606Y13052D01*
G01X17592Y13038D01*
G01X17579Y13022D01*
G01X17568Y13004D01*
G01X17558Y12984D01*
G01X17549Y12963D01*
G01X17542Y12941D01*
G01X17536Y12918D01*
G01X17531Y12894D01*
G01X17528Y12869D01*
G01X17526Y12844D01*
G01X17526Y12792D01*
G01X17528Y12767D01*
G01X17531Y12742D01*
G01X17536Y12718D01*
G01X17542Y12694D01*
G01X17549Y12672D01*
G01X17558Y12651D01*
G01X17568Y12632D01*
G01X17579Y12614D01*
G01X17592Y12598D01*
G01X17606Y12584D01*
G01X17622Y12572D01*
G01X17640Y12562D01*
G01X17658Y12555D01*
G01X17679Y12551D01*
G01X17701Y12549D01*
G01X17723Y12551D01*
G01X17744Y12555D01*
G01X17763Y12562D01*
G01X17780Y12572D01*
G01X17796Y12584D01*
G01X17811Y12598D01*
G01X17824Y12614D01*
G01X17836Y12632D01*
G01X17846Y12651D01*
G01X17855Y12672D01*
G01X17862Y12694D01*
G01X17868Y12718D01*
G01X17873Y12742D01*
G01X17876Y12767D01*
G01X17878Y12792D01*
G01X17879Y12818D01*
G01X17878Y12844D01*
G01X17876Y12869D01*
G01X17873Y12894D01*
G01X17868Y12918D01*
G01X17862Y12941D01*
G01X17855Y12963D01*
G01X17846Y12984D01*
G01X17836Y13004D01*
G01X17824Y13022D01*
G01X17811Y13038D01*
G01X17796Y13052D01*
G01X17780Y13064D01*
G01X17763Y13073D01*
G01X17744Y13080D01*
G01X17723Y13085D01*
G37*

%LPD*%
G36*
G01X21132Y13124D02*
G01X21112Y13124D01*
G01X21092Y13122D01*
G01X21071Y13119D01*
G01X21050Y13115D01*
G01X21029Y13109D01*
G01X21008Y13102D01*
G01X20986Y13093D01*
G01X20965Y13081D01*
G01X20963Y12952D01*
G01X21011Y12952D01*
G01X21033Y13064D01*
G01X21055Y13074D01*
G01X21077Y13081D01*
G01X21100Y13085D01*
G01X21122Y13086D01*
G01X21144Y13085D01*
G01X21166Y13082D01*
G01X21187Y13076D01*
G01X21207Y13069D01*
G01X21226Y13059D01*
G01X21243Y13047D01*
G01X21260Y13034D01*
G01X21275Y13017D01*
G01X21289Y13000D01*
G01X21302Y12980D01*
G01X21313Y12957D01*
G01X21322Y12934D01*
G01X21329Y12908D01*
G01X21334Y12880D01*
G01X21337Y12850D01*
G01X21339Y12818D01*
G01X21338Y12786D01*
G01X21335Y12756D01*
G01X21330Y12728D01*
G01X21323Y12702D01*
G01X21314Y12678D01*
G01X21304Y12656D01*
G01X21292Y12636D01*
G01X21279Y12618D01*
G01X21264Y12603D01*
G01X21248Y12589D01*
G01X21230Y12577D01*
G01X21211Y12567D01*
G01X21191Y12560D01*
G01X21170Y12555D01*
G01X21148Y12551D01*
G01X21125Y12550D01*
G01X21100Y12551D01*
G01X21075Y12555D01*
G01X21050Y12561D01*
G01X21025Y12571D01*
G01X21003Y12682D01*
G01X20955Y12682D01*
G01X20957Y12554D01*
G01X20977Y12544D01*
G01X20998Y12535D01*
G01X21019Y12528D01*
G01X21041Y12522D01*
G01X21063Y12517D01*
G01X21085Y12514D01*
G01X21108Y12512D01*
G01X21132Y12511D01*
G01X21158Y12512D01*
G01X21183Y12515D01*
G01X21207Y12520D01*
G01X21230Y12526D01*
G01X21253Y12534D01*
G01X21274Y12543D01*
G01X21294Y12554D01*
G01X21313Y12567D01*
G01X21330Y12581D01*
G01X21346Y12596D01*
G01X21361Y12613D01*
G01X21375Y12631D01*
G01X21387Y12651D01*
G01X21398Y12671D01*
G01X21407Y12693D01*
G01X21415Y12716D01*
G01X21421Y12740D01*
G01X21425Y12765D01*
G01X21428Y12791D01*
G01X21429Y12818D01*
G01X21428Y12845D01*
G01X21425Y12870D01*
G01X21420Y12895D01*
G01X21414Y12919D01*
G01X21406Y12942D01*
G01X21397Y12963D01*
G01X21386Y12984D01*
G01X21373Y13003D01*
G01X21359Y13022D01*
G01X21344Y13038D01*
G01X21328Y13054D01*
G01X21310Y13068D01*
G01X21291Y13081D01*
G01X21271Y13092D01*
G01X21250Y13102D01*
G01X21228Y13110D01*
G01X21205Y13116D01*
G01X21181Y13121D01*
G01X21157Y13123D01*
G01X21132Y13124D01*
G37*

%LPD*%
G36*
G01X21884Y13124D02*
G01X21862Y13124D01*
G01X21842Y13121D01*
G01X21822Y13117D01*
G01X21804Y13112D01*
G01X21786Y13105D01*
G01X21770Y13097D01*
G01X21754Y13088D01*
G01X21740Y13078D01*
G01X21745Y12963D01*
G01X21791Y12963D01*
G01X21813Y13068D01*
G01X21830Y13076D01*
G01X21847Y13082D01*
G01X21865Y13085D01*
G01X21885Y13086D01*
G01X21910Y13085D01*
G01X21933Y13080D01*
G01X21954Y13071D01*
G01X21972Y13060D01*
G01X21986Y13045D01*
G01X21997Y13028D01*
G01X22004Y13007D01*
G01X22007Y12983D01*
G01X22005Y12963D01*
G01X22000Y12945D01*
G01X21992Y12929D01*
G01X21981Y12915D01*
G01X21967Y12901D01*
G01X21950Y12890D01*
G01X21930Y12879D01*
G01X21908Y12869D01*
G01X21873Y12855D01*
G01X21845Y12844D01*
G01X21820Y12832D01*
G01X21798Y12820D01*
G01X21779Y12807D01*
G01X21763Y12794D01*
G01X21749Y12780D01*
G01X21737Y12766D01*
G01X21728Y12751D01*
G01X21721Y12734D01*
G01X21716Y12717D01*
G01X21714Y12698D01*
G01X21713Y12678D01*
G01X21714Y12653D01*
G01X21719Y12630D01*
G01X21728Y12608D01*
G01X21739Y12589D01*
G01X21753Y12571D01*
G01X21770Y12556D01*
G01X21789Y12542D01*
G01X21811Y12532D01*
G01X21835Y12523D01*
G01X21861Y12517D01*
G01X21889Y12513D01*
G01X21919Y12511D01*
G01X21943Y12512D01*
G01X21967Y12515D01*
G01X21991Y12519D01*
G01X22013Y12525D01*
G01X22035Y12532D01*
G01X22054Y12540D01*
G01X22073Y12549D01*
G01X22089Y12558D01*
G01X22084Y12681D01*
G01X22039Y12681D01*
G01X22017Y12571D01*
G01X21996Y12562D01*
G01X21974Y12555D01*
G01X21951Y12551D01*
G01X21925Y12550D01*
G01X21894Y12552D01*
G01X21867Y12557D01*
G01X21843Y12566D01*
G01X21823Y12578D01*
G01X21806Y12594D01*
G01X21795Y12612D01*
G01X21787Y12634D01*
G01X21785Y12659D01*
G01X21786Y12679D01*
G01X21791Y12697D01*
G01X21799Y12713D01*
G01X21810Y12726D01*
G01X21826Y12739D01*
G01X21845Y12751D01*
G01X21867Y12763D01*
G01X21895Y12774D01*
G01X21928Y12788D01*
G01X21950Y12798D01*
G01X21970Y12808D01*
G01X21990Y12819D01*
G01X22007Y12830D01*
G01X22023Y12843D01*
G01X22037Y12857D01*
G01X22049Y12871D01*
G01X22060Y12887D01*
G01X22068Y12904D01*
G01X22074Y12922D01*
G01X22077Y12942D01*
G01X22079Y12963D01*
G01X22077Y12988D01*
G01X22072Y13011D01*
G01X22064Y13032D01*
G01X22052Y13050D01*
G01X22039Y13067D01*
G01X22022Y13082D01*
G01X22004Y13095D01*
G01X21983Y13105D01*
G01X21960Y13113D01*
G01X21936Y13120D01*
G01X21911Y13123D01*
G01X21884Y13124D01*
G37*

%LPD*%
G36*
G01X23492Y13124D02*
G01X23470Y13124D01*
G01X23450Y13121D01*
G01X23430Y13117D01*
G01X23412Y13112D01*
G01X23394Y13105D01*
G01X23378Y13097D01*
G01X23362Y13088D01*
G01X23348Y13078D01*
G01X23353Y12963D01*
G01X23399Y12963D01*
G01X23421Y13068D01*
G01X23438Y13076D01*
G01X23455Y13082D01*
G01X23473Y13085D01*
G01X23493Y13086D01*
G01X23518Y13085D01*
G01X23541Y13080D01*
G01X23562Y13071D01*
G01X23580Y13060D01*
G01X23594Y13045D01*
G01X23605Y13028D01*
G01X23612Y13007D01*
G01X23615Y12983D01*
G01X23613Y12963D01*
G01X23608Y12945D01*
G01X23600Y12929D01*
G01X23589Y12915D01*
G01X23575Y12901D01*
G01X23558Y12890D01*
G01X23538Y12879D01*
G01X23516Y12869D01*
G01X23481Y12855D01*
G01X23453Y12844D01*
G01X23428Y12832D01*
G01X23406Y12820D01*
G01X23387Y12807D01*
G01X23371Y12794D01*
G01X23357Y12780D01*
G01X23345Y12766D01*
G01X23336Y12751D01*
G01X23329Y12734D01*
G01X23324Y12717D01*
G01X23322Y12698D01*
G01X23321Y12678D01*
G01X23322Y12653D01*
G01X23327Y12630D01*
G01X23336Y12608D01*
G01X23347Y12589D01*
G01X23361Y12571D01*
G01X23378Y12556D01*
G01X23397Y12542D01*
G01X23419Y12532D01*
G01X23443Y12523D01*
G01X23469Y12517D01*
G01X23497Y12513D01*
G01X23527Y12511D01*
G01X23551Y12512D01*
G01X23575Y12515D01*
G01X23599Y12519D01*
G01X23621Y12525D01*
G01X23643Y12532D01*
G01X23662Y12540D01*
G01X23681Y12549D01*
G01X23697Y12558D01*
G01X23692Y12681D01*
G01X23647Y12681D01*
G01X23625Y12571D01*
G01X23604Y12562D01*
G01X23582Y12555D01*
G01X23559Y12551D01*
G01X23533Y12550D01*
G01X23502Y12552D01*
G01X23475Y12557D01*
G01X23451Y12566D01*
G01X23431Y12578D01*
G01X23414Y12594D01*
G01X23403Y12612D01*
G01X23395Y12634D01*
G01X23393Y12659D01*
G01X23394Y12679D01*
G01X23399Y12697D01*
G01X23407Y12713D01*
G01X23418Y12726D01*
G01X23434Y12739D01*
G01X23453Y12751D01*
G01X23475Y12763D01*
G01X23503Y12774D01*
G01X23536Y12788D01*
G01X23558Y12798D01*
G01X23578Y12808D01*
G01X23598Y12819D01*
G01X23615Y12830D01*
G01X23631Y12843D01*
G01X23645Y12857D01*
G01X23657Y12871D01*
G01X23668Y12887D01*
G01X23676Y12904D01*
G01X23682Y12922D01*
G01X23685Y12942D01*
G01X23687Y12963D01*
G01X23685Y12988D01*
G01X23680Y13011D01*
G01X23672Y13032D01*
G01X23660Y13050D01*
G01X23647Y13067D01*
G01X23630Y13082D01*
G01X23612Y13095D01*
G01X23591Y13105D01*
G01X23568Y13113D01*
G01X23544Y13120D01*
G01X23519Y13123D01*
G01X23492Y13124D01*
G37*

%LPD*%
G36*
G01X30190Y2982D02*
G01X30879Y2982D01*
G01X30879Y167D01*
G01X30190Y167D01*
G01X30190Y2982D01*
G37*
G36*
G01X29206Y2982D02*
G01X29895Y2982D01*
G01X29895Y167D01*
G01X29206Y167D01*
G01X29206Y2982D01*
G37*
G36*
G01X28222Y2982D02*
G01X28911Y2982D01*
G01X28911Y167D01*
G01X28222Y167D01*
G01X28222Y2982D01*
G37*
G36*
G01X27237Y2982D02*
G01X27926Y2982D01*
G01X27926Y167D01*
G01X27237Y167D01*
G01X27237Y2982D01*
G37*
G36*
G01X26253Y2982D02*
G01X26942Y2982D01*
G01X26942Y167D01*
G01X26253Y167D01*
G01X26253Y2982D01*
G37*
G36*
G01X25269Y2982D02*
G01X25958Y2982D01*
G01X25958Y167D01*
G01X25269Y167D01*
G01X25269Y2982D01*
G37*
G36*
G01X24285Y2982D02*
G01X24974Y2982D01*
G01X24974Y167D01*
G01X24285Y167D01*
G01X24285Y2982D01*
G37*
G36*
G01X23300Y2982D02*
G01X23989Y2982D01*
G01X23989Y167D01*
G01X23300Y167D01*
G01X23300Y2982D01*
G37*
G36*
G01X22316Y2982D02*
G01X23005Y2982D01*
G01X23005Y167D01*
G01X22316Y167D01*
G01X22316Y2982D01*
G37*
G36*
G01X21332Y2982D02*
G01X22021Y2982D01*
G01X22021Y167D01*
G01X21332Y167D01*
G01X21332Y2982D01*
G37*
G36*
G01X20348Y2982D02*
G01X21037Y2982D01*
G01X21037Y167D01*
G01X20348Y167D01*
G01X20348Y2982D01*
G37*
G36*
G01X19363Y2982D02*
G01X20052Y2982D01*
G01X20052Y167D01*
G01X19363Y167D01*
G01X19363Y2982D01*
G37*
G36*
G01X18379Y2982D02*
G01X19068Y2982D01*
G01X19068Y167D01*
G01X18379Y167D01*
G01X18379Y2982D01*
G37*
G36*
G01X17395Y2982D02*
G01X18084Y2982D01*
G01X18084Y167D01*
G01X17395Y167D01*
G01X17395Y2982D01*
G37*
G36*
G01X16411Y2982D02*
G01X17100Y2982D01*
G01X17100Y167D01*
G01X16411Y167D01*
G01X16411Y2982D01*
G37*
G36*
G01X15426Y2982D02*
G01X16115Y2982D01*
G01X16115Y167D01*
G01X15426Y167D01*
G01X15426Y2982D01*
G37*
G36*
G01X14442Y2982D02*
G01X15131Y2982D01*
G01X15131Y167D01*
G01X14442Y167D01*
G01X14442Y2982D01*
G37*
G36*
G01X13458Y2982D02*
G01X14147Y2982D01*
G01X14147Y167D01*
G01X13458Y167D01*
G01X13458Y2982D01*
G37*
G36*
G01X12474Y2982D02*
G01X13163Y2982D01*
G01X13163Y167D01*
G01X12474Y167D01*
G01X12474Y2982D01*
G37*
G36*
G01X11489Y2982D02*
G01X12178Y2982D01*
G01X12178Y167D01*
G01X11489Y167D01*
G01X11489Y2982D01*
G37*
G36*
G01X10505Y2982D02*
G01X11194Y2982D01*
G01X11194Y167D01*
G01X10505Y167D01*
G01X10505Y2982D01*
G37*
G36*
G01X9521Y2982D02*
G01X10210Y2982D01*
G01X10210Y167D01*
G01X9521Y167D01*
G01X9521Y2982D01*
G37*
G36*
G01X8537Y2982D02*
G01X9226Y2982D01*
G01X9226Y167D01*
G01X8537Y167D01*
G01X8537Y2982D01*
G37*
G54D15*
G01X31985Y11324D03*
G54D16*
G01X30985Y11324D03*
G01X29985Y11324D03*
G01X28985Y11324D03*
G01X27985Y11324D03*
G01X26985Y11324D03*
G01X25985Y11324D03*
G01X24985Y11324D03*
G01X23985Y11324D03*
G01X22985Y11324D03*
G01X21985Y11324D03*
G01X20985Y11324D03*
G01X19985Y11324D03*
G01X18985Y11324D03*
G01X17985Y11324D03*
G01X16985Y11324D03*
G01X16985Y5324D03*
G01X17985Y5324D03*
G01X18985Y5324D03*
G01X19985Y5324D03*
G01X20985Y5324D03*
G01X21985Y5324D03*
G01X22985Y5324D03*
G01X23985Y5324D03*
G01X24985Y5324D03*
G01X25985Y5324D03*
G01X26985Y5324D03*
G01X27985Y5324D03*
G01X28985Y5324D03*
G01X29985Y5324D03*
G01X30985Y5324D03*
G01X31985Y5324D03*
G54D17*
G01X14095Y8354D03*
G01X13095Y8354D03*
G54D18*
G01X7285Y9624D03*
G54D19*
G01X7285Y8624D03*
G01X7285Y7624D03*
G01X7285Y6624D03*
G01X10285Y6624D03*
G01X10285Y7624D03*
G01X10285Y8624D03*
G01X10285Y9624D03*
G54D17*
G01X13075Y6244D03*
G01X14075Y6244D03*
G01X14095Y10304D03*
G01X13095Y10304D03*
G54D13*
G01X25730Y6038D03*
G01X27239Y3444D03*
G01X25356Y3369D03*
G01X28526Y4166D03*
G01X26006Y4606D03*
G01X29236Y3166D03*
G01X28136Y3690D03*
G54D14*
G01X31035Y3324D03*
M00*
M02*
