;Layer: Drill PTH
;EasyEDA v6.3.22, 2020-04-08T11:48:21--7:00
;247715d04a294634badd8a564075c606,8a10dd2cf1b84b9ab6f9dfecbfc888dd,10
;Gerber Generator version 0.2
M48
INCH,LZ,00.0000
;Holesize 1 = 0.012 INCH
T01C0.012
;Holesize 2 = 0.012 INCH
T02C0.012
;Holesize 3 = 0.028 INCH
T03C0.028
;Holesize 4 = 0.035 INCH
T04C0.035
%
G05
G90
T01
X+031035Y+003324
T02
X+025730Y+006038
X+027239Y+003444
X+025356Y+003369
X+028526Y+004166
X+026006Y+004606
X+029236Y+003166
X+028136Y+003690
T03
X+031985Y+011324
X+030985Y+011324
X+029985Y+011324
X+028985Y+011324
X+027985Y+011324
X+026985Y+011324
X+025985Y+011324
X+024985Y+011324
X+023985Y+011324
X+022985Y+011324
X+021985Y+011324
X+020985Y+011324
X+019985Y+011324
X+018985Y+011324
X+017985Y+011324
X+016985Y+011324
X+016985Y+005324
X+017985Y+005324
X+018985Y+005324
X+019985Y+005324
X+020985Y+005324
X+021985Y+005324
X+022985Y+005324
X+023985Y+005324
X+024985Y+005324
X+025985Y+005324
X+026985Y+005324
X+027985Y+005324
X+028985Y+005324
X+029985Y+005324
X+030985Y+005324
X+031985Y+005324
X+014095Y+008354
X+013095Y+008354
X+013075Y+006244
X+014075Y+006244
X+014095Y+010304
X+013095Y+010304
T04
X+007285Y+009624
X+007285Y+008624
X+007285Y+007624
X+007285Y+006624
X+010285Y+006624
X+010285Y+007624
X+010285Y+008624
X+010285Y+009624
M30
